<svg width="518" height="51" viewBox="0 0 518 51" fill="none" xmlns="http://www.w3.org/2000/svg">
<path d="M9.17227 11.1182C9.06227 11.1182 8.95227 11.0982 8.84227 11.0982C4.49227 11.0782 0.622266 13.9982 0.322266 18.4182V18.6082V21.2082V39.9882H5.18227V19.5182C5.31227 17.5882 7.13227 16.0082 9.64227 16.0082H16.7423V11.1182H9.17227Z" fill="black"/>
<path d="M16.5027 23.4581H10.0527V27.5281H16.5027V23.4581Z" fill="black"/>
<path d="M27.843 20.2782H23.043V39.9782H27.843V20.2782Z" fill="black"/>
<path d="M27.7614 11.0782H22.9414V15.9782H27.7614V11.0782Z" fill="black"/>
<path d="M36.4918 22.7382C35.1318 24.4882 34.3818 26.6482 34.3418 28.8882V39.9782H38.9418L39.0118 28.8882C39.0218 27.9182 39.3018 26.9582 39.8018 26.1282C40.3018 25.2982 41.0218 24.6182 41.8718 24.1682V19.1782C39.7418 19.7282 37.8518 20.9782 36.4918 22.7282V22.7382Z" fill="black"/>
<path d="M52.0815 22.7781C50.7415 21.0281 48.8715 19.7781 46.7715 19.2081V24.1981C47.6115 24.6481 48.3215 25.3281 48.8115 26.1481C49.3115 26.9781 49.5715 27.9181 49.5915 28.8881C49.5915 39.9681 49.6315 39.9681 49.6315 39.9681H54.3015L54.2115 28.8881C54.1815 26.6681 53.4315 24.5281 52.0915 22.7781H52.0815Z" fill="black"/>
<path d="M80.5615 30.9482V29.3082H80.5515C80.3015 23.7982 75.8315 19.5382 70.3315 19.3882C68.5815 19.3482 66.8715 19.8982 65.4415 20.8982V11.0182H60.7715V39.9582H65.4415V29.5582C65.2915 26.2282 67.3315 24.2582 70.3415 24.4182C71.6815 24.5082 72.9515 25.0282 73.9815 25.8982C74.9415 26.8282 75.5315 28.0882 75.6415 29.4282V30.9482H80.5615Z" fill="black"/>
<path d="M80.5715 35.6682H75.7715V39.8282H80.5715V35.6682Z" fill="black"/>
<path d="M91.8916 32.8082C91.3916 31.9882 91.1216 31.0382 91.1016 30.0682C91.0616 18.9882 91.0216 18.9882 91.0216 18.9882L86.3516 19.0082L86.4916 30.0882C86.5316 32.3082 87.2816 34.4482 88.6316 36.1882C89.9816 37.9282 91.8516 39.1782 93.9616 39.7382L93.9416 34.7482C93.1016 34.2982 92.3916 33.6282 91.8916 32.8082Z" fill="black"/>
<path d="M101.702 18.9382L101.672 30.0182C101.672 30.9882 101.392 31.9482 100.892 32.7782C100.392 33.6082 99.682 34.2882 98.832 34.7382V39.7382C100.972 39.1782 102.862 37.9282 104.212 36.1682C105.562 34.4082 106.312 32.2482 106.342 30.0182L106.302 18.9182L101.702 18.9382Z" fill="black"/>
<path d="M124.503 19.2681C123.643 19.2681 122.783 19.3381 121.933 19.4981V23.5681C122.633 23.3881 123.343 23.2981 124.063 23.2881C126.263 23.2881 127.993 23.9281 129.253 25.2081C130.373 26.3681 130.923 27.8781 130.923 29.7481C130.943 30.5881 130.783 31.4281 130.453 32.2081C130.133 32.9881 129.643 33.6781 129.033 34.2481C127.723 35.5281 125.993 36.1681 123.843 36.1681C121.833 36.1681 120.163 35.4881 118.823 34.1381C117.573 32.8781 116.943 31.4681 116.943 29.8981V11.0981H112.143V30.2081C112.143 32.9381 113.283 35.2881 115.563 37.2581C117.843 39.2281 120.593 40.2081 123.823 40.2081C127.213 40.2081 130.043 39.1681 132.313 37.0881C134.583 35.0081 135.713 32.4281 135.713 29.3581C135.713 26.6781 134.703 24.3681 132.673 22.4281C130.533 20.3381 127.803 19.2881 124.503 19.2881V19.2681Z" fill="black"/>
<path d="M160.301 0.358154H155.861V50.7282H160.301V0.358154Z" fill="#2C4DCA"/>
<path d="M184.936 37.3522C188.888 37.3522 190.864 36.0002 190.864 33.2962C190.864 32.4642 190.682 31.7622 190.318 31.1902C189.98 30.5922 189.512 30.0852 188.914 29.6692C188.316 29.2272 187.627 28.8502 186.847 28.5382C186.093 28.2262 185.287 27.9142 184.429 27.6022C183.441 27.2642 182.505 26.8872 181.621 26.4712C180.737 26.0292 179.97 25.5222 179.32 24.9502C178.67 24.3522 178.15 23.6502 177.76 22.8442C177.396 22.0382 177.214 21.0632 177.214 19.9192C177.214 17.5532 178.02 15.7072 179.632 14.3812C181.244 13.0552 183.467 12.3922 186.301 12.3922C187.939 12.3922 189.421 12.5742 190.747 12.9382C192.099 13.2762 193.087 13.6532 193.711 14.0692L192.502 17.1502C191.956 16.8122 191.137 16.4872 190.045 16.1752C188.979 15.8372 187.731 15.6682 186.301 15.6682C185.573 15.6682 184.897 15.7462 184.273 15.9022C183.649 16.0582 183.103 16.2922 182.635 16.6042C182.167 16.9162 181.79 17.3192 181.504 17.8132C181.244 18.2812 181.114 18.8402 181.114 19.4902C181.114 20.2182 181.257 20.8292 181.543 21.3232C181.829 21.8172 182.232 22.2592 182.752 22.6492C183.272 23.0132 183.87 23.3512 184.546 23.6632C185.248 23.9752 186.015 24.2872 186.847 24.5992C188.017 25.0672 189.083 25.5352 190.045 26.0032C191.033 26.4712 191.878 27.0302 192.58 27.6802C193.308 28.3302 193.867 29.1102 194.257 30.0202C194.647 30.9042 194.842 31.9832 194.842 33.2572C194.842 35.6232 193.971 37.4432 192.229 38.7172C190.513 39.9912 188.082 40.6282 184.936 40.6282C183.87 40.6282 182.882 40.5502 181.972 40.3942C181.088 40.2642 180.295 40.1082 179.593 39.9262C178.891 39.7182 178.28 39.5102 177.76 39.3022C177.266 39.0682 176.876 38.8732 176.59 38.7172L177.721 35.5972C178.319 35.9352 179.229 36.3122 180.451 36.7282C181.673 37.1442 183.168 37.3522 184.936 37.3522ZM210.661 40.5112C209.023 40.5112 207.58 40.2512 206.332 39.7312C205.11 39.2112 204.07 38.4832 203.212 37.5472C202.38 36.6112 201.756 35.5062 201.34 34.2322C200.924 32.9322 200.716 31.5022 200.716 29.9422C200.716 28.3822 200.937 26.9522 201.379 25.6522C201.847 24.3522 202.497 23.2342 203.329 22.2982C204.161 21.3362 205.175 20.5952 206.371 20.0752C207.593 19.5292 208.945 19.2562 210.427 19.2562C211.337 19.2562 212.247 19.3342 213.157 19.4902C214.067 19.6462 214.938 19.8932 215.77 20.2312L214.951 23.3122C214.405 23.0522 213.768 22.8442 213.04 22.6882C212.338 22.5322 211.584 22.4542 210.778 22.4542C208.75 22.4542 207.19 23.0912 206.098 24.3652C205.032 25.6392 204.499 27.4982 204.499 29.9422C204.499 31.0342 204.616 32.0352 204.85 32.9452C205.11 33.8552 205.5 34.6352 206.02 35.2852C206.566 35.9352 207.255 36.4422 208.087 36.8062C208.919 37.1442 209.933 37.3132 211.129 37.3132C212.091 37.3132 212.962 37.2222 213.742 37.0402C214.522 36.8582 215.133 36.6632 215.575 36.4552L216.082 39.4972C215.874 39.6272 215.575 39.7572 215.185 39.8872C214.795 39.9912 214.353 40.0822 213.859 40.1602C213.365 40.2642 212.832 40.3422 212.26 40.3942C211.714 40.4722 211.181 40.5112 210.661 40.5112ZM229.507 37.4302C230.365 37.4302 231.119 37.4172 231.769 37.3912C232.445 37.3392 233.004 37.2612 233.446 37.1572V31.1122C233.186 30.9822 232.757 30.8782 232.159 30.8002C231.587 30.6962 230.885 30.6442 230.053 30.6442C229.507 30.6442 228.922 30.6832 228.298 30.7612C227.7 30.8392 227.141 31.0082 226.621 31.2682C226.127 31.5022 225.711 31.8402 225.373 32.2822C225.035 32.6982 224.866 33.2572 224.866 33.9592C224.866 35.2592 225.282 36.1692 226.114 36.6892C226.946 37.1832 228.077 37.4302 229.507 37.4302ZM229.195 19.2562C230.651 19.2562 231.873 19.4512 232.861 19.8412C233.875 20.2052 234.681 20.7382 235.279 21.4402C235.903 22.1162 236.345 22.9352 236.605 23.8972C236.865 24.8332 236.995 25.8732 236.995 27.0172V39.6922C236.683 39.7442 236.241 39.8222 235.669 39.9262C235.123 40.0042 234.499 40.0822 233.797 40.1602C233.095 40.2382 232.328 40.3032 231.496 40.3552C230.69 40.4332 229.884 40.4722 229.078 40.4722C227.934 40.4722 226.881 40.3552 225.919 40.1212C224.957 39.8872 224.125 39.5232 223.423 39.0292C222.721 38.5092 222.175 37.8332 221.785 37.0012C221.395 36.1692 221.2 35.1682 221.2 33.9982C221.2 32.8802 221.421 31.9182 221.863 31.1122C222.331 30.3062 222.955 29.6562 223.735 29.1622C224.515 28.6682 225.425 28.3042 226.465 28.0702C227.505 27.8362 228.597 27.7192 229.741 27.7192C230.105 27.7192 230.482 27.7452 230.872 27.7972C231.262 27.8232 231.626 27.8752 231.964 27.9532C232.328 28.0052 232.64 28.0572 232.9 28.1092C233.16 28.1612 233.342 28.2002 233.446 28.2262V27.2122C233.446 26.6142 233.381 26.0292 233.251 25.4572C233.121 24.8592 232.887 24.3392 232.549 23.8972C232.211 23.4292 231.743 23.0652 231.145 22.8052C230.573 22.5192 229.819 22.3762 228.883 22.3762C227.687 22.3762 226.634 22.4672 225.724 22.6492C224.84 22.8052 224.177 22.9742 223.735 23.1562L223.306 20.1532C223.774 19.9452 224.554 19.7502 225.646 19.5682C226.738 19.3602 227.921 19.2562 229.195 19.2562ZM251.77 40.4332C249.534 40.3812 247.948 39.9002 247.012 38.9902C246.076 38.0802 245.608 36.6632 245.608 34.7392V10.4032L249.235 9.77921V34.1542C249.235 34.7522 249.287 35.2462 249.391 35.6362C249.495 36.0262 249.664 36.3382 249.898 36.5722C250.132 36.8062 250.444 36.9882 250.834 37.1182C251.224 37.2222 251.705 37.3132 252.277 37.3912L251.77 40.4332ZM262.644 40.0432H259.017V19.7632H262.644V40.0432ZM260.811 16.0972C260.161 16.0972 259.602 15.8892 259.134 15.4732C258.692 15.0312 258.471 14.4462 258.471 13.7182C258.471 12.9902 258.692 12.4182 259.134 12.0022C259.602 11.5602 260.161 11.3392 260.811 11.3392C261.461 11.3392 262.007 11.5602 262.449 12.0022C262.917 12.4182 263.151 12.9902 263.151 13.7182C263.151 14.4462 262.917 15.0312 262.449 15.4732C262.007 15.8892 261.461 16.0972 260.811 16.0972ZM271.548 20.3482C272.38 20.1402 273.485 19.9192 274.863 19.6852C276.241 19.4512 277.827 19.3342 279.621 19.3342C281.233 19.3342 282.572 19.5682 283.638 20.0362C284.704 20.4782 285.549 21.1152 286.173 21.9472C286.823 22.7532 287.278 23.7282 287.538 24.8722C287.798 26.0162 287.928 27.2772 287.928 28.6552V40.0432H284.301V29.4352C284.301 28.1872 284.21 27.1212 284.028 26.2372C283.872 25.3532 283.599 24.6382 283.209 24.0922C282.819 23.5462 282.299 23.1562 281.649 22.9222C280.999 22.6622 280.193 22.5322 279.231 22.5322C278.841 22.5322 278.438 22.5452 278.022 22.5712C277.606 22.5972 277.203 22.6362 276.813 22.6882C276.449 22.7142 276.111 22.7532 275.799 22.8052C275.513 22.8572 275.305 22.8962 275.175 22.9222V40.0432H271.548V20.3482ZM309.324 38.0152C309.012 38.2232 308.401 38.4962 307.491 38.8342C306.607 39.1462 305.567 39.3022 304.371 39.3022C303.149 39.3022 301.992 39.1072 300.9 38.7172C299.834 38.3272 298.898 37.7292 298.092 36.9232C297.286 36.0912 296.649 35.0642 296.181 33.8422C295.713 32.6202 295.479 31.1642 295.479 29.4742C295.479 27.9922 295.7 26.6402 296.142 25.4182C296.584 24.1702 297.221 23.1042 298.053 22.2202C298.911 21.3102 299.951 20.6082 301.173 20.1142C302.395 19.5942 303.773 19.3342 305.307 19.3342C306.997 19.3342 308.466 19.4642 309.714 19.7242C310.988 19.9582 312.054 20.1792 312.912 20.3872V38.4832C312.912 41.6032 312.106 43.8652 310.494 45.2692C308.882 46.6732 306.438 47.3752 303.162 47.3752C301.888 47.3752 300.679 47.2712 299.535 47.0632C298.417 46.8552 297.442 46.6082 296.61 46.3222L297.273 43.1632C298.001 43.4492 298.885 43.6962 299.925 43.9042C300.991 44.1382 302.096 44.2552 303.24 44.2552C305.398 44.2552 306.945 43.8262 307.881 42.9682C308.843 42.1102 309.324 40.7452 309.324 38.8732V38.0152ZM309.285 22.9612C308.921 22.8572 308.427 22.7662 307.803 22.6882C307.205 22.5842 306.386 22.5322 305.346 22.5322C303.396 22.5322 301.888 23.1692 300.822 24.4432C299.782 25.7172 299.262 27.4072 299.262 29.5132C299.262 30.6832 299.405 31.6842 299.691 32.5162C300.003 33.3482 300.406 34.0372 300.9 34.5832C301.42 35.1292 302.005 35.5322 302.655 35.7922C303.331 36.0522 304.02 36.1822 304.722 36.1822C305.684 36.1822 306.568 36.0522 307.374 35.7922C308.18 35.5062 308.817 35.1812 309.285 34.8172V22.9612ZM340.03 37.3522C343.982 37.3522 345.958 36.0002 345.958 33.2962C345.958 32.4642 345.776 31.7622 345.412 31.1902C345.074 30.5922 344.606 30.0852 344.008 29.6692C343.41 29.2272 342.721 28.8502 341.941 28.5382C341.187 28.2262 340.381 27.9142 339.523 27.6022C338.535 27.2642 337.599 26.8872 336.715 26.4712C335.831 26.0292 335.064 25.5222 334.414 24.9502C333.764 24.3522 333.244 23.6502 332.854 22.8442C332.49 22.0382 332.308 21.0632 332.308 19.9192C332.308 17.5532 333.114 15.7072 334.726 14.3812C336.338 13.0552 338.561 12.3922 341.395 12.3922C343.033 12.3922 344.515 12.5742 345.841 12.9382C347.193 13.2762 348.181 13.6532 348.805 14.0692L347.596 17.1502C347.05 16.8122 346.231 16.4872 345.139 16.1752C344.073 15.8372 342.825 15.6682 341.395 15.6682C340.667 15.6682 339.991 15.7462 339.367 15.9022C338.743 16.0582 338.197 16.2922 337.729 16.6042C337.261 16.9162 336.884 17.3192 336.598 17.8132C336.338 18.2812 336.208 18.8402 336.208 19.4902C336.208 20.2182 336.351 20.8292 336.637 21.3232C336.923 21.8172 337.326 22.2592 337.846 22.6492C338.366 23.0132 338.964 23.3512 339.64 23.6632C340.342 23.9752 341.109 24.2872 341.941 24.5992C343.111 25.0672 344.177 25.5352 345.139 26.0032C346.127 26.4712 346.972 27.0302 347.674 27.6802C348.402 28.3302 348.961 29.1102 349.351 30.0202C349.741 30.9042 349.936 31.9832 349.936 33.2572C349.936 35.6232 349.065 37.4432 347.323 38.7172C345.607 39.9912 343.176 40.6282 340.03 40.6282C338.964 40.6282 337.976 40.5502 337.066 40.3942C336.182 40.2642 335.389 40.1082 334.687 39.9262C333.985 39.7182 333.374 39.5102 332.854 39.3022C332.36 39.0682 331.97 38.8732 331.684 38.7172L332.815 35.5972C333.413 35.9352 334.323 36.3122 335.545 36.7282C336.767 37.1442 338.262 37.3522 340.03 37.3522ZM374.842 29.9032C374.842 31.5152 374.608 32.9712 374.14 34.2712C373.672 35.5712 373.009 36.6892 372.151 37.6252C371.319 38.5612 370.318 39.2892 369.148 39.8092C367.978 40.3032 366.704 40.5502 365.326 40.5502C363.948 40.5502 362.674 40.3032 361.504 39.8092C360.334 39.2892 359.32 38.5612 358.462 37.6252C357.63 36.6892 356.98 35.5712 356.512 34.2712C356.044 32.9712 355.81 31.5152 355.81 29.9032C355.81 28.3172 356.044 26.8742 356.512 25.5742C356.98 24.2482 357.63 23.1172 358.462 22.1812C359.32 21.2452 360.334 20.5302 361.504 20.0362C362.674 19.5162 363.948 19.2562 365.326 19.2562C366.704 19.2562 367.978 19.5162 369.148 20.0362C370.318 20.5302 371.319 21.2452 372.151 22.1812C373.009 23.1172 373.672 24.2482 374.14 25.5742C374.608 26.8742 374.842 28.3172 374.842 29.9032ZM371.059 29.9032C371.059 27.6152 370.539 25.8082 369.499 24.4822C368.485 23.1302 367.094 22.4542 365.326 22.4542C363.558 22.4542 362.154 23.1302 361.114 24.4822C360.1 25.8082 359.593 27.6152 359.593 29.9032C359.593 32.1912 360.1 34.0112 361.114 35.3632C362.154 36.6892 363.558 37.3522 365.326 37.3522C367.094 37.3522 368.485 36.6892 369.499 35.3632C370.539 34.0112 371.059 32.1912 371.059 29.9032ZM388.696 40.4332C386.46 40.3812 384.874 39.9002 383.938 38.9902C383.002 38.0802 382.534 36.6632 382.534 34.7392V10.4032L386.161 9.77921V34.1542C386.161 34.7522 386.213 35.2462 386.317 35.6362C386.421 36.0262 386.59 36.3382 386.824 36.5722C387.058 36.8062 387.37 36.9882 387.76 37.1182C388.15 37.2222 388.631 37.3132 389.203 37.3912L388.696 40.4332ZM412.089 39.4582C411.257 39.6662 410.152 39.8872 408.774 40.1212C407.422 40.3552 405.849 40.4722 404.055 40.4722C402.495 40.4722 401.182 40.2512 400.116 39.8092C399.05 39.3412 398.192 38.6912 397.542 37.8592C396.892 37.0272 396.424 36.0522 396.138 34.9342C395.852 33.7902 395.709 32.5292 395.709 31.1512V19.7632H399.336V30.3712C399.336 32.8412 399.726 34.6092 400.506 35.6752C401.286 36.7412 402.599 37.2742 404.445 37.2742C404.835 37.2742 405.238 37.2612 405.654 37.2352C406.07 37.2092 406.46 37.1832 406.824 37.1572C407.188 37.1052 407.513 37.0662 407.799 37.0402C408.111 36.9882 408.332 36.9362 408.462 36.8842V19.7632H412.089V39.4582ZM424.397 19.7632H432.08V22.8052H424.397V32.1652C424.397 33.1792 424.475 34.0242 424.631 34.7002C424.787 35.3502 425.021 35.8702 425.333 36.2602C425.645 36.6242 426.035 36.8842 426.503 37.0402C426.971 37.1962 427.517 37.2742 428.141 37.2742C429.233 37.2742 430.104 37.1572 430.754 36.9232C431.43 36.6632 431.898 36.4812 432.158 36.3772L432.86 39.3802C432.496 39.5622 431.859 39.7832 430.949 40.0432C430.039 40.3292 428.999 40.4722 427.829 40.4722C426.451 40.4722 425.307 40.3032 424.397 39.9652C423.513 39.6012 422.798 39.0682 422.252 38.3662C421.706 37.6642 421.316 36.8062 421.082 35.7922C420.874 34.7522 420.77 33.5562 420.77 32.2042V14.1082L424.397 13.4842V19.7632ZM442.99 40.0432H439.363V19.7632H442.99V40.0432ZM441.157 16.0972C440.507 16.0972 439.948 15.8892 439.48 15.4732C439.038 15.0312 438.817 14.4462 438.817 13.7182C438.817 12.9902 439.038 12.4182 439.48 12.0022C439.948 11.5602 440.507 11.3392 441.157 11.3392C441.807 11.3392 442.353 11.5602 442.795 12.0022C443.263 12.4182 443.497 12.9902 443.497 13.7182C443.497 14.4462 443.263 15.0312 442.795 15.4732C442.353 15.8892 441.807 16.0972 441.157 16.0972ZM469.795 29.9032C469.795 31.5152 469.561 32.9712 469.093 34.2712C468.625 35.5712 467.962 36.6892 467.104 37.6252C466.272 38.5612 465.271 39.2892 464.101 39.8092C462.931 40.3032 461.657 40.5502 460.279 40.5502C458.901 40.5502 457.627 40.3032 456.457 39.8092C455.287 39.2892 454.273 38.5612 453.415 37.6252C452.583 36.6892 451.933 35.5712 451.465 34.2712C450.997 32.9712 450.763 31.5152 450.763 29.9032C450.763 28.3172 450.997 26.8742 451.465 25.5742C451.933 24.2482 452.583 23.1172 453.415 22.1812C454.273 21.2452 455.287 20.5302 456.457 20.0362C457.627 19.5162 458.901 19.2562 460.279 19.2562C461.657 19.2562 462.931 19.5162 464.101 20.0362C465.271 20.5302 466.272 21.2452 467.104 22.1812C467.962 23.1172 468.625 24.2482 469.093 25.5742C469.561 26.8742 469.795 28.3172 469.795 29.9032ZM466.012 29.9032C466.012 27.6152 465.492 25.8082 464.452 24.4822C463.438 23.1302 462.047 22.4542 460.279 22.4542C458.511 22.4542 457.107 23.1302 456.067 24.4822C455.053 25.8082 454.546 27.6152 454.546 29.9032C454.546 32.1912 455.053 34.0112 456.067 35.3632C457.107 36.6892 458.511 37.3522 460.279 37.3522C462.047 37.3522 463.438 36.6892 464.452 35.3632C465.492 34.0112 466.012 32.1912 466.012 29.9032ZM477.565 20.3482C478.397 20.1402 479.502 19.9192 480.88 19.6852C482.258 19.4512 483.844 19.3342 485.638 19.3342C487.25 19.3342 488.589 19.5682 489.655 20.0362C490.721 20.4782 491.566 21.1152 492.19 21.9472C492.84 22.7532 493.295 23.7282 493.555 24.8722C493.815 26.0162 493.945 27.2772 493.945 28.6552V40.0432H490.318V29.4352C490.318 28.1872 490.227 27.1212 490.045 26.2372C489.889 25.3532 489.616 24.6382 489.226 24.0922C488.836 23.5462 488.316 23.1562 487.666 22.9222C487.016 22.6622 486.21 22.5322 485.248 22.5322C484.858 22.5322 484.455 22.5452 484.039 22.5712C483.623 22.5972 483.22 22.6362 482.83 22.6882C482.466 22.7142 482.128 22.7532 481.816 22.8052C481.53 22.8572 481.322 22.8962 481.192 22.9222V40.0432H477.565V20.3482ZM507.346 37.4302C508.828 37.4302 509.92 37.2352 510.622 36.8452C511.35 36.4552 511.714 35.8312 511.714 34.9732C511.714 34.0892 511.363 33.3872 510.661 32.8672C509.959 32.3472 508.802 31.7622 507.19 31.1122C506.41 30.8002 505.656 30.4882 504.928 30.1762C504.226 29.8382 503.615 29.4482 503.095 29.0062C502.575 28.5642 502.159 28.0312 501.847 27.4072C501.535 26.7832 501.379 26.0162 501.379 25.1062C501.379 23.3122 502.042 21.8952 503.368 20.8552C504.694 19.7892 506.501 19.2562 508.789 19.2562C509.361 19.2562 509.933 19.2952 510.505 19.3732C511.077 19.4252 511.61 19.5032 512.104 19.6072C512.598 19.6852 513.027 19.7762 513.391 19.8802C513.781 19.9842 514.08 20.0752 514.288 20.1532L513.625 23.2732C513.235 23.0652 512.624 22.8572 511.792 22.6492C510.96 22.4152 509.959 22.2982 508.789 22.2982C507.775 22.2982 506.891 22.5062 506.137 22.9222C505.383 23.3122 505.006 23.9362 505.006 24.7942C505.006 25.2362 505.084 25.6262 505.24 25.9642C505.422 26.3022 505.682 26.6142 506.02 26.9002C506.384 27.1602 506.826 27.4072 507.346 27.6412C507.866 27.8752 508.49 28.1222 509.218 28.3822C510.18 28.7462 511.038 29.1102 511.792 29.4742C512.546 29.8122 513.183 30.2152 513.703 30.6832C514.249 31.1512 514.665 31.7232 514.951 32.3992C515.237 33.0492 515.38 33.8552 515.38 34.8172C515.38 36.6892 514.678 38.1062 513.274 39.0682C511.896 40.0302 509.92 40.5112 507.346 40.5112C505.552 40.5112 504.148 40.3552 503.134 40.0432C502.12 39.7572 501.431 39.5362 501.067 39.3802L501.73 36.2602C502.146 36.4162 502.809 36.6502 503.719 36.9622C504.629 37.2742 505.838 37.4302 507.346 37.4302Z" fill="black"/>
</svg>
