<svg xmlns="http://www.w3.org/2000/svg" id="Layer_1" data-name="Layer 1" viewBox="0 0 1280 300.61">
  <defs fill="#031634">
    <style>
      .cls-1 {
        fill: #87847f;
      }
    </style>
  </defs>
  <g>
    <path class="cls-1" d="M274.24,0h0c0,37.87-30.7,68.56-68.56,68.56H68.56V0H0V137.12H205.68C281.41,137.12,342.8,75.73,342.8,0h0s-68.56,0-68.56,0Z" fill="#031634"/>
    <path class="cls-1" d="M205.68,163.49H0v137.12H68.56v-68.56H205.68c37.87,0,68.56,30.7,68.56,68.56h0s68.56,0,68.56,0h0c0-75.73-61.39-137.12-137.12-137.12Z" fill="#031634"/>
  </g>
  <g>
    <path class="cls-1" d="M395.54,228.28V70.02h33.46v69.78h2.08l56.95-69.78h40.1l-58.73,70.86,59.42,87.4h-40.03l-43.35-65.06-16.46,20.09v44.97h-33.46Z" fill="#031634"/>
    <path class="cls-1" d="M587.13,230.59c-12.01,0-22.37-2.56-31.1-7.69-8.73-5.13-15.47-12.29-20.21-21.48-4.74-9.19-7.11-19.87-7.11-32.03s2.37-22.99,7.11-32.18c4.74-9.19,11.48-16.35,20.21-21.48,8.73-5.13,19.1-7.69,31.1-7.69s22.37,2.56,31.1,7.69c8.73,5.13,15.46,12.29,20.21,21.48,4.74,9.2,7.11,19.93,7.11,32.18s-2.37,22.84-7.11,32.03c-4.74,9.2-11.48,16.36-20.21,21.48-8.73,5.13-19.1,7.69-31.1,7.69Zm.15-25.5c5.46,0,10.02-1.56,13.68-4.68,3.66-3.12,6.43-7.38,8.31-12.79,1.88-5.41,2.82-11.57,2.82-18.47s-.94-13.06-2.82-18.47c-1.88-5.41-4.65-9.68-8.31-12.83-3.66-3.14-8.22-4.71-13.68-4.71s-10.14,1.57-13.87,4.71c-3.74,3.14-6.54,7.42-8.42,12.83-1.88,5.41-2.82,11.57-2.82,18.47s.94,13.06,2.82,18.47c1.88,5.41,4.69,9.67,8.42,12.79,3.73,3.12,8.36,4.68,13.87,4.68Z" fill="#031634"/>
    <path class="cls-1" d="M707.24,230.21c-9.01,0-17.17-2.33-24.46-6.99-7.29-4.66-13.06-11.54-17.31-20.63-4.25-9.09-6.37-20.26-6.37-33.5s2.19-24.92,6.57-33.96c4.38-9.04,10.21-15.81,17.5-20.32,7.29-4.51,15.29-6.76,23.99-6.76,6.64,0,12.2,1.12,16.65,3.36,4.46,2.24,8.06,5.02,10.82,8.35,2.76,3.32,4.85,6.58,6.3,9.78h1v-59.5h32.84V228.28h-32.46v-19.01h-1.39c-1.55,3.3-3.72,6.56-6.53,9.77-2.81,3.22-6.44,5.89-10.89,8-4.46,2.11-9.88,3.17-16.27,3.17Zm10.43-26.2c5.3,0,9.8-1.46,13.48-4.37,3.68-2.91,6.52-6.99,8.5-12.25,1.98-5.25,2.98-11.41,2.98-18.47s-.98-13.19-2.94-18.39-4.79-9.22-8.5-12.05c-3.71-2.83-8.22-4.25-13.52-4.25s-9.97,1.47-13.68,4.4c-3.71,2.94-6.52,7.01-8.42,12.21-1.91,5.2-2.86,11.23-2.86,18.08s.97,13,2.9,18.28c1.93,5.28,4.74,9.4,8.42,12.36,3.68,2.96,8.23,4.44,13.64,4.44Z" fill="#031634"/>
    <path class="cls-1" d="M851.15,230.59c-12.21,0-22.71-2.48-31.49-7.46-8.78-4.97-15.55-12.03-20.29-21.17-4.74-9.14-7.11-19.98-7.11-32.49s2.37-22.93,7.11-32.15c4.74-9.22,11.42-16.41,20.05-21.56,8.63-5.15,18.77-7.73,30.41-7.73,7.83,0,15.13,1.25,21.91,3.75,6.77,2.5,12.7,6.25,17.77,11.24,5.07,5,9.03,11.27,11.86,18.82,2.83,7.55,4.25,16.37,4.25,26.47v9.04h-100.22v-20.4h69.24c0-4.74-1.03-8.94-3.09-12.6s-4.91-6.53-8.54-8.62c-3.63-2.09-7.84-3.13-12.63-3.13s-9.41,1.15-13.25,3.44c-3.84,2.29-6.84,5.36-9,9.2-2.16,3.84-3.27,8.1-3.32,12.79v19.4c0,5.87,1.09,10.95,3.29,15.22,2.19,4.28,5.29,7.57,9.31,9.89,4.02,2.32,8.78,3.48,14.3,3.48,3.66,0,7.01-.52,10.05-1.55,3.04-1.03,5.64-2.58,7.8-4.64,2.16-2.06,3.81-4.58,4.95-7.57l30.44,2.01c-1.55,7.32-4.7,13.69-9.47,19.12-4.77,5.43-10.89,9.66-18.39,12.67-7.5,3.01-16.14,4.52-25.93,4.52Z" fill="#031634"/>
    <path class="cls-1" d="M1021.18,143.43l-30.14,1.86c-.52-2.58-1.62-4.91-3.32-6.99-1.7-2.09-3.93-3.76-6.68-5.02-2.76-1.26-6.04-1.89-9.85-1.89-5.1,0-9.4,1.07-12.9,3.21-3.5,2.14-5.25,4.99-5.25,8.54,0,2.83,1.13,5.23,3.4,7.19,2.27,1.96,6.16,3.53,11.67,4.71l21.48,4.33c11.54,2.37,20.14,6.18,25.81,11.44,5.67,5.25,8.5,12.16,8.5,20.71,0,7.78-2.28,14.61-6.84,20.48-4.56,5.87-10.79,10.45-18.7,13.72-7.91,3.27-17.01,4.91-27.32,4.91-15.71,0-28.22-3.28-37.52-9.85-9.3-6.57-14.75-15.52-16.34-26.85l32.38-1.7c.98,4.79,3.35,8.44,7.11,10.93,3.76,2.5,8.58,3.75,14.45,3.75s10.42-1.12,13.95-3.36c3.53-2.24,5.32-5.14,5.37-8.69-.05-2.99-1.31-5.45-3.79-7.38-2.47-1.93-6.29-3.41-11.44-4.44l-20.55-4.1c-11.59-2.32-20.21-6.34-25.85-12.05-5.64-5.72-8.46-13.01-8.46-21.87,0-7.62,2.07-14.19,6.22-19.7,4.15-5.51,9.99-9.76,17.54-12.75,7.55-2.99,16.39-4.48,26.54-4.48,14.99,0,26.8,3.17,35.43,9.5,8.63,6.34,13.66,14.97,15.11,25.89Z" fill="#031634"/>
    <path class="cls-1" d="M1093.95,230.59c-12.01,0-22.37-2.56-31.1-7.69-8.73-5.13-15.47-12.29-20.21-21.48-4.74-9.19-7.11-19.87-7.11-32.03s2.37-22.99,7.11-32.18c4.74-9.19,11.48-16.35,20.21-21.48,8.73-5.13,19.1-7.69,31.1-7.69s22.37,2.56,31.1,7.69c8.73,5.13,15.46,12.29,20.21,21.48,4.74,9.2,7.11,19.93,7.11,32.18s-2.37,22.84-7.11,32.03c-4.74,9.2-11.48,16.36-20.21,21.48-8.73,5.13-19.1,7.69-31.1,7.69Zm.15-25.5c5.46,0,10.02-1.56,13.68-4.68,3.66-3.12,6.43-7.38,8.31-12.79,1.88-5.41,2.82-11.57,2.82-18.47s-.94-13.06-2.82-18.47c-1.88-5.41-4.65-9.68-8.31-12.83-3.66-3.14-8.22-4.71-13.68-4.71s-10.14,1.57-13.87,4.71c-3.74,3.14-6.54,7.42-8.42,12.83-1.88,5.41-2.82,11.57-2.82,18.47s.94,13.06,2.82,18.47c1.88,5.41,4.69,9.67,8.42,12.79,3.73,3.12,8.36,4.68,13.87,4.68Z" fill="#031634"/>
    <path class="cls-1" d="M1203.5,159.66v68.62h-32.92V109.58h31.37v20.94h1.39c2.63-6.9,7.03-12.38,13.21-16.42,6.18-4.04,13.68-6.07,22.49-6.07,8.24,0,15.43,1.8,21.56,5.41,6.13,3.61,10.89,8.75,14.3,15.42,3.4,6.67,5.1,14.62,5.1,23.84v75.57h-32.92v-69.7c.05-7.26-1.8-12.94-5.56-17.04-3.76-4.1-8.94-6.14-15.53-6.14-4.43,0-8.33,.95-11.71,2.86-3.38,1.91-6,4.68-7.88,8.31-1.88,3.63-2.85,8-2.9,13.1Z" fill="#031634"/>
  </g>
</svg>