<svg xmlns="http://www.w3.org/2000/svg" xmlns:xlink="http://www.w3.org/1999/xlink" width="348.465" height="73.842" viewBox="0 0 348.465 73.842">
  <defs>
    <clipPath id="clip-path">
      <rect id="Rectangle_4682" data-name="Rectangle 4682" width="348.465" height="73.842" fill="#5a5a5a"/>
    </clipPath>
  </defs>
  <g id="Logo" clip-path="url(#clip-path)">
    <path id="Path_963" data-name="Path 963" d="M22.76.253c-.28-.01-.557-.029-.839-.029C10.722.172.764,7.565,0,18.749v.175H0V73.348H12.493V21.361c.4-4.694,4.854-8.549,10.984-8.733H42.222V.247H22.76Z" transform="translate(0 -0.035)" fill="#5a5a5a"/>
    <rect id="Rectangle_4678" data-name="Rectangle 4678" width="16.6" height="10.304" transform="translate(25.05 31.483)" fill="#5a5a5a"/>
    <rect id="Rectangle_4679" data-name="Rectangle 4679" width="12.344" height="49.885" transform="translate(58.461 23.428)" fill="#5a5a5a"/>
    <rect id="Rectangle_4680" data-name="Rectangle 4680" width="12.397" height="12.397" transform="translate(58.21 0.136)" fill="#5a5a5a"/>
    <path id="Path_964" data-name="Path 964" d="M103.961,49.082v28.08l11.83-.032q.092-14.024.184-28.048a13.658,13.658,0,0,1,7.352-11.928V24.513a25.729,25.729,0,0,0-19.367,24.569" transform="translate(-16.375 -3.861)" fill="#5a5a5a"/>
    <path id="Path_965" data-name="Path 965" d="M141.9,24.586V37.215a13.659,13.659,0,0,1,7.257,11.879c0,28.048.088,28.048.088,28.048h12.021l-.243-28.048A25.727,25.727,0,0,0,141.9,24.586" transform="translate(-22.35 -3.873)" fill="#5a5a5a"/>
    <path id="Path_966" data-name="Path 966" d="M235.589,50.444v-4.15h-.025c-.645-13.962-12.162-24.747-26.286-25.1a21.387,21.387,0,0,0-12.613,3.741V0H184.644V73.269h12.021V45.285c.326-7.427,5.382-11.734,12.613-11.372a16.589,16.589,0,0,1,9.375,3.746,14.01,14.01,0,0,1,4.272,8.928v3.858Z" transform="translate(-29.084)" fill="#5a5a5a"/>
    <rect id="Rectangle_4681" data-name="Rectangle 4681" width="12.344" height="10.529" transform="translate(194.179 62.394)" fill="#5a5a5a"/>
    <path id="Path_967" data-name="Path 967" d="M275.047,51.982c-.109-28.048-.2-28.048-.2-28.048l-12.021.047.35,28.047A25.728,25.728,0,0,0,282.4,76.461l-.05-12.628a13.662,13.662,0,0,1-7.3-11.851" transform="translate(-41.398 -3.77)" fill="#5a5a5a"/>
    <path id="Path_968" data-name="Path 968" d="M308.329,23.794q-.038,14.025-.076,28.049A13.659,13.659,0,0,1,300.947,63.8L301,76.44A25.73,25.73,0,0,0,320.268,51.8l-.109-28.08-11.83.078" transform="translate(-47.403 -3.736)" fill="#5a5a5a"/>
    <path id="Path_969" data-name="Path 969" d="M394.438,28.84Q386.171,20.9,373.4,20.9a35.007,35.007,0,0,0-6.609.589V31.807a24.009,24.009,0,0,1,5.48-.725q8.506,0,13.352,4.858,4.308,4.391,4.308,11.49a15.036,15.036,0,0,1-4.845,11.4q-5.062,4.858-13.349,4.858a17.579,17.579,0,0,1-12.92-5.138A14.722,14.722,0,0,1,353.971,47.8V.161H341.626v48.39q0,10.369,8.8,17.842a31.732,31.732,0,0,0,21.253,7.474q13.095,0,21.844-7.894a25.3,25.3,0,0,0,8.748-19.57,23.323,23.323,0,0,0-7.836-17.563" transform="translate(-53.81 -0.025)" fill="#5a5a5a"/>
  </g>
</svg>
