<svg xmlns="http://www.w3.org/2000/svg" width="16.368" height="15.697" viewBox="0 0 16.368 15.697">
  <path id="LinkedIn" d="M3.714,15.7V5.105H.205V15.7ZM1.96,3.658A1.835,1.835,0,1,0,1.983,0a1.834,1.834,0,1,0-.046,3.659H1.96ZM5.656,15.7H9.165V9.782a2.42,2.42,0,0,1,.115-.859,1.921,1.921,0,0,1,1.8-1.287c1.27,0,1.778.971,1.778,2.395V15.7h3.509V9.623c0-3.253-1.731-4.767-4.04-4.767A3.494,3.494,0,0,0,9.141,6.641h.023V5.105H5.656c.046.994,0,10.591,0,10.591Z" transform="translate(0.002 0.001)" fill="#f9f9f9"/>
</svg>
