<?xml version="1.0" encoding="utf-8"?>
<!-- Generator: Adobe Illustrator 26.0.2, SVG Export Plug-In . SVG Version: 6.00 Build 0)  -->
<svg version="1.1" id="Layer_1" xmlns="http://www.w3.org/2000/svg" xmlns:xlink="http://www.w3.org/1999/xlink" x="0px" y="0px"
	 viewBox="0 0 61.6 61.7" style="enable-background:new 0 0 61.6 61.7;" xml:space="preserve">
<style type="text/css">
	.st0{fill:#333843;}
	.st1{fill:#B5363A;}
</style>
<g>
	<g id="Icon">
		<path id="Path_924" class="st0" d="M21.9,14.4V0h39.7v51.7h-7.9c-0.3,3.1-1.9,6-4.5,7.8c-1.9,1.4-4.2,2.2-6.6,2.1
			c-2.7,0-5.3-1-7.3-2.9c-2-1.8-3.2-4.3-3.5-7h-2c0,0.5,0,0.9,0,1.3c0,1.5,0,3-0.1,4.5c-0.4,2.3-2.3,4-4.7,4c-6.7,0-13.5,0-20.2,0
			c-2.7-0.1-4.9-2.3-4.8-5c0,0,0,0,0-0.1c0-7,0-13.9,0-20.9c0-3.5,0-7.1,0-10.6c-0.1-2.4,1.6-4.6,4-5.1c0.2-0.1,0.4-0.3,0.5-0.5
			c1.2-3.9,4.5-6.7,8.5-7.3c2.9-0.6,5.8,0.1,8.2,1.8C21.4,14.1,21.6,14.2,21.9,14.4 M23.9,2c0,0.1,0,0.1,0,0.2c0,4.7,0,9.4,0,14.1
			c0,0.2,0.1,0.4,0.1,0.5c0.4,0.9,0.9,1.9,1.3,2.8c0.1,0.1,0.2,0.3,0.3,0.4c0.7,0.3,1.5,0.5,2.2,0.8v-4.8h8v11.9h2V9.9h7.9v17.8h2V4
			h8v23.9h1.9v2H29.9v19.8h2c0.6-5.4,4.9-9.5,10.3-9.9c2.4-0.2,4.7,0.5,6.7,1.8c2.8,1.8,4.5,4.8,4.9,8.1h6V2L23.9,2z M4,22.1
			c-1.3,0.4-2.1,1.6-2,2.9c0,10.4,0,20.8,0,31.3c-0.2,1.7,1,3.2,2.7,3.3c0.2,0,0.5,0,0.7,0h19.1c2.3,0,3.4-1.2,3.4-3.4
			c0-10.3,0-20.6,0-31c0-0.2,0-0.4,0-0.6c-0.1-1.2-0.9-2.2-2-2.5v11.6H4V22.1z M14.9,31.8c4.9,0,9-4,9-8.9c0-4.9-4-9-8.9-9
			c-4.9,0-8.9,4-9,8.9C6,27.7,9.9,31.8,14.9,31.8 M33.8,50.7c0,4.9,4,9,8.9,9c4.9,0,9-4,9-8.9c0-4.9-4-8.9-8.9-9
			C37.9,41.7,33.9,45.7,33.8,50.7 M53.7,6h-3.9v21.8h3.9V6z M43.7,12h-3.9v15.8h3.9L43.7,12z M33.8,17.9h-3.9v9.9h3.9V17.9z
			 M23.9,29.6l-2.1,2.1h2.1V29.6z M6,29.6v2.1h2.1L6,29.6"/>
		<rect id="Rectangle_4671" x="43.8" y="31.8" class="st1" width="13.9" height="1.9"/>
		<rect id="Rectangle_4672" x="43.8" y="35.8" class="st0" width="9.9" height="1.9"/>
		<rect id="Rectangle_4673" x="55.8" y="35.8" class="st0" width="1.9" height="1.9"/>
		<path id="Path_925" class="st0" d="M10,38.8c0.2,2.2-0.7,3-3,3c-2.2,0-3-0.8-3-3s0.7-3,3.1-3C9.2,35.7,10.1,36.5,10,38.8 M6,39.7
			h1.9v-1.9H6L6,39.7z"/>
		<path id="Path_926" class="st0" d="M17.9,38.8c0.2,2.2-0.7,3-3,3c-2.2,0-3-0.8-3-3s0.7-3,3.1-3C17.1,35.7,18.1,36.5,17.9,38.8
			 M15.9,37.8H14v1.9h1.9L15.9,37.8z"/>
		<path id="Path_927" class="st1" d="M19.9,38.7c-0.2-2.2,0.7-3,2.9-3c2.4,0,3.1,0.8,3.1,3s-0.8,3-3,3
			C20.7,41.8,19.7,41.1,19.9,38.7 M21.9,39.7h1.9v-1.9h-1.9L21.9,39.7z"/>
		<path id="Path_928" class="st0" d="M4,46.6c-0.2-2.2,0.8-3.1,2.9-2.9c0.4,0,0.8,0,1.2,0c1,0,1.9,0.9,1.9,1.9c0,0.7,0,1.4,0,2.1
			c0,1.1-0.9,1.9-2,1.9c-0.6,0-1.3,0-1.9,0c-1.1,0-2-0.8-2.1-1.9c0-0.1,0-0.1,0-0.2C4,47.3,4,47,4,46.6 M6,47.7h1.9v-1.9H6L6,47.7z"
			/>
		<path id="Path_929" class="st1" d="M11.9,46.7c-0.2-2.3,0.8-3.1,2.9-3c0.4,0,0.7,0,1.1,0c1,0,1.9,0.9,1.9,1.9c0,0.7,0,1.4,0,2.1
			c0,1.1-0.9,1.9-2,1.9c-0.6,0-1.3,0-1.9,0c-1.1,0-2-0.8-2.1-1.9c0-0.1,0-0.1,0-0.2C11.9,47.3,11.9,47,11.9,46.7 M15.9,45.8H14v1.9
			h1.9L15.9,45.8z"/>
		<path id="Path_930" class="st0" d="M25.9,46.7c0.2,2.3-0.7,3-3,3c-2.3,0-3-0.8-3-3c0-2.3,0.8-3,3-3C25.1,43.7,26.1,44.5,25.9,46.7
			 M21.9,47.7h1.9v-1.9h-1.9L21.9,47.7z"/>
		<path id="Path_931" class="st1" d="M10,54.7c0.2,2.3-0.7,3-3,3c-2.2,0-3.1-0.8-3-3c0-0.4,0-0.7,0-1.1c0-1,0.9-1.9,1.9-1.9
			c0.7,0,1.3,0,2,0c1.1,0,2,0.8,2.1,1.9c0,0,0,0.1,0,0.1C10,54.1,9.9,54.4,10,54.7 M7.9,53.7H6v1.9h1.9L7.9,53.7z"/>
		<path id="Path_932" class="st0" d="M14.9,57.7c-2.3,0.2-3.1-0.7-3-3c0-2.2,0.7-3.1,3-3c0.3,0,0.7,0,1.1,0c1,0,1.9,0.9,1.9,1.9
			c0,0.6,0,1.3,0,1.9c0.1,1.1-0.8,2.1-1.9,2.1c-0.1,0-0.2,0-0.3,0C15.5,57.7,15.2,57.7,14.9,57.7 M14,55.6h1.9v-1.9H14L14,55.6z"/>
		<path id="Path_933" class="st0" d="M25.9,54.7c0.2,2.3-0.8,3-3,3c-2.3,0-3-0.7-3-3.1c0-2.3,0.8-3.1,3-3c0.3,0,0.7,0,1,0
			c1.1,0,2,0.8,2,1.9c0,0,0,0.1,0,0.1C25.9,54.1,25.9,54.4,25.9,54.7 M21.9,55.6h1.9v-1.9h-1.9V55.6z"/>
		<path id="Path_934" class="st0" d="M10.8,24.9h2.1c0.2,0.8,0.7,1,1.5,1c0.5,0,1,0,1.5,0c0.5,0,1-0.4,1-1c0-0.5-0.4-1-1-1
			c0,0,0,0,0,0c-0.6,0-1.2,0-1.8,0c-1.6,0.1-3.1-1.2-3.1-2.8c-0.1-1.6,1.1-3,2.7-3.1c0.1,0,0.2,0,0.3,0v-1.9h2v1.9
			c1,0,1.9,0.5,2.4,1.3c0.3,0.5,0.5,1.1,0.7,1.7H17c-0.2-0.8-0.7-1-1.5-1c-0.5,0-1,0-1.5,0c-0.5,0-1,0.4-1,1c0,0.5,0.4,1,1,1
			c0,0,0,0,0,0c0.6,0,1.2,0,1.8,0c1.6-0.1,3.1,1.2,3.1,2.8c0.1,1.6-1.1,3-2.7,3.1c-0.1,0-0.2,0-0.3,0v1.9h-2v-1.9
			c-1,0-1.9-0.5-2.4-1.3C11.2,26,11,25.4,10.8,24.9"/>
		<path id="Path_935" class="st0" d="M41.8,45.7v-1.9h2v1.9c2,0.5,2.9,1.4,3,3h-1.9c-0.4-0.8-0.5-1-1.4-1c-0.5,0-1,0-1.6,0
			c-0.5,0-1,0.4-1,0.9c0,0.5,0.4,1,0.9,1c0,0,0.1,0,0.1,0c0.6,0,1.2,0,1.7,0c1.6-0.1,3.1,1.1,3.2,2.8c0.1,1.6-1.1,3-2.7,3.2
			c-0.1,0-0.2,0-0.3,0v1.9h-2v-1.9c-2-0.5-2.9-1.4-3-3h1.9c0.4,0.8,0.5,1,1.4,1c0.5,0,1,0,1.6,0c0.5,0,1-0.4,1-0.9
			c0-0.5-0.4-1-0.9-1c0,0-0.1,0-0.1,0c-0.6,0-1.2,0-1.7,0c-1.6,0.1-3.1-1.1-3.2-2.8c-0.1-1.6,1.1-3.1,2.8-3.2
			C41.6,45.7,41.7,45.7,41.8,45.7"/>
	</g>
</g>
</svg>
