<svg xmlns="http://www.w3.org/2000/svg" xmlns:xlink="http://www.w3.org/1999/xlink" width="211" height="66.75" viewBox="0 0 211 66.75">
  <defs>
    <clipPath id="clip-path">
      <rect id="Rectangle_4693" data-name="Rectangle 4693" width="211" height="66.75" transform="translate(0 0)" fill="#b5363a"/>
    </clipPath>
  </defs>
  <g id="Anders_Capital_Logo" data-name="Anders Capital Logo" transform="translate(0 0)" clip-path="url(#clip-path)">
    <path id="Path_970" data-name="Path 970" d="M72.7,42.713c-2.769-.057-5.212-1.765-5.194-3.633.017-1.8,2.265-3.2,5.038-3.137s5.21,1.758,5.189,3.629c-.021,1.807-2.25,3.2-5.033,3.14" transform="translate(-19.719 -10.499)" fill="#b5363a"/>
    <path id="Path_971" data-name="Path 971" d="M45.248,48.567c-2.664-.029-4.145-1.126-4.112-3.044.036-2.059,2.341-3.731,5.1-3.7,2.294.026,4.247,1.48,4.223,3.145-.027,1.908-2.519,3.628-5.214,3.6" transform="translate(-12.016 -12.217)" fill="#b5363a"/>
    <path id="Path_972" data-name="Path 972" d="M20.865,46.709c-1.27-.027-2.766-.046-2.873-2.052-.1-1.906,2.484-3.963,5-3.891,1.482.042,2.93.4,2.93,2.32,0,1.757-2.466,3.547-5.059,3.624" transform="translate(-5.255 -11.907)" fill="#b5363a"/>
    <path id="Path_973" data-name="Path 973" d="M6.113,39.411c-1.081-.061-2.155-.19-1.992-1.66.16-1.446,2.9-3.161,4.864-3.115,1.112.025,2.136.207,1.962,1.671-.181,1.516-2.823,3.18-4.834,3.1" transform="translate(-1.199 -10.117)" fill="#b5363a"/>
    <path id="Path_974" data-name="Path 974" d="M35.859.384c.11.386-.5.9-1.362,1.142s-1.649.131-1.759-.255.5-.9,1.362-1.142S35.749,0,35.859.384" transform="translate(-9.559 0)" fill="#333843"/>
    <path id="Path_975" data-name="Path 975" d="M24.312,5c.175.5-.5,1.186-1.507,1.541s-1.966.24-2.141-.256.5-1.186,1.508-1.541,1.965-.24,2.14.256" transform="translate(-6.028 -1.327)" fill="#b5363a"/>
    <path id="Path_976" data-name="Path 976" d="M14.768,11.152c.192.544-.548,1.3-1.652,1.689s-2.155.263-2.347-.281.549-1.3,1.653-1.689,2.154-.263,2.346.281" transform="translate(-3.137 -3.11)" fill="#b5363a"/>
    <path id="Path_977" data-name="Path 977" d="M7.876,18.641c.256.615-.549,1.534-1.8,2.053s-2.468.441-2.723-.174.549-1.534,1.8-2.053,2.468-.441,2.723.174" transform="translate(-0.966 -5.294)" fill="#b5363a"/>
    <path id="Path_978" data-name="Path 978" d="M5.957,26.742c.389.787-.59,2.066-2.187,2.856s-3.208.793-3.6.006.59-2.066,2.187-2.856,3.208-.794,3.6-.006" transform="translate(-0.025 -7.64)" fill="#b5363a"/>
    <path id="Path_979" data-name="Path 979" d="M4.756,79.3l-2.081,6.3H0L6.807,65.571H9.928l6.838,20.035H14l-2.14-6.3Zm6.569-2.021L9.364,71.517c-.446-1.308-.743-2.5-1.041-3.657H8.264c-.3,1.189-.624,2.408-1.011,3.627l-1.962,5.8Z" transform="translate(0 -19.154)" fill="#333843"/>
    <path id="Path_980" data-name="Path 980" d="M27.842,85.606V65.571h2.824l6.421,10.137a56.752,56.752,0,0,1,3.6,6.51l.059-.03c-.238-2.675-.3-5.113-.3-8.234V65.571h2.437V85.606H40.268L33.906,75.44a63.715,63.715,0,0,1-3.745-6.689l-.089.03c.149,2.527.208,4.935.208,8.264v8.561Z" transform="translate(-8.133 -19.154)" fill="#333843"/>
    <path id="Path_981" data-name="Path 981" d="M55.473,65.778a37.031,37.031,0,0,1,5.5-.416c3.716,0,6.362.862,8.115,2.5a9.227,9.227,0,0,1,2.824,7.194,10.594,10.594,0,0,1-2.883,7.788c-1.872,1.873-4.964,2.883-8.859,2.883a41.725,41.725,0,0,1-4.7-.238Zm2.586,17.716a16.329,16.329,0,0,0,2.616.149c5.529,0,8.531-3.091,8.531-8.5.03-4.727-2.645-7.729-8.115-7.729a14.7,14.7,0,0,0-3.032.268Z" transform="translate(-16.204 -19.093)" fill="#333843"/>
    <path id="Path_982" data-name="Path 982" d="M93.815,76.213H86.027v7.223h8.68v2.17H83.441V65.572h10.82v2.17H86.027v6.332h7.788Z" transform="translate(-24.374 -19.154)" fill="#333843"/>
    <path id="Path_983" data-name="Path 983" d="M104.1,65.778a26.932,26.932,0,0,1,4.964-.416c2.765,0,4.548.5,5.8,1.635a4.989,4.989,0,0,1,1.575,3.8,5.261,5.261,0,0,1-3.775,5.113V76c1.546.535,2.468,1.962,2.943,4.043a31.839,31.839,0,0,0,1.545,5.5h-2.675a25.946,25.946,0,0,1-1.338-4.786c-.595-2.764-1.664-3.8-4.013-3.894h-2.437v8.68H104.1Zm2.586,9.126h2.645c2.765,0,4.518-1.516,4.518-3.8,0-2.586-1.872-3.716-4.608-3.745a10.638,10.638,0,0,0-2.556.238Z" transform="translate(-30.409 -19.093)" fill="#333843"/>
    <path id="Path_984" data-name="Path 984" d="M125.92,82.321a9.164,9.164,0,0,0,4.637,1.308c2.645,0,4.191-1.4,4.191-3.418,0-1.873-1.07-2.943-3.775-3.983-3.27-1.16-5.291-2.854-5.291-5.678,0-3.121,2.586-5.439,6.48-5.439a9.1,9.1,0,0,1,4.429.98l-.714,2.111a7.975,7.975,0,0,0-3.8-.951c-2.735,0-3.775,1.635-3.775,3,0,1.873,1.219,2.794,3.983,3.864,3.389,1.308,5.113,2.943,5.113,5.886,0,3.091-2.289,5.766-7.015,5.766a10.353,10.353,0,0,1-5.113-1.278Z" transform="translate(-36.591 -19.019)" fill="#333843"/>
    <path id="Path_985" data-name="Path 985" d="M169.809,84.817a12.836,12.836,0,0,1-5.292.951c-5.648,0-9.9-3.567-9.9-10.137,0-6.272,4.251-10.523,10.463-10.523a10.738,10.738,0,0,1,4.756.892l-.624,2.11a9.429,9.429,0,0,0-4.043-.832c-4.7,0-7.818,3-7.818,8.263,0,4.9,2.824,8.056,7.7,8.056a10.362,10.362,0,0,0,4.221-.832Z" transform="translate(-45.166 -19.019)" fill="#333843"/>
    <path id="Path_986" data-name="Path 986" d="M183.437,79.3l-2.081,6.3h-2.675l6.807-20.035h3.121l6.837,20.035h-2.765l-2.14-6.3Zm6.569-2.021-1.962-5.766c-.446-1.308-.743-2.5-1.041-3.657h-.059c-.3,1.189-.624,2.408-1.011,3.627l-1.962,5.8Z" transform="translate(-52.195 -19.154)" fill="#333843"/>
    <path id="Path_987" data-name="Path 987" d="M206.523,65.749a29.96,29.96,0,0,1,4.964-.387c2.557,0,4.429.594,5.619,1.664a5.387,5.387,0,0,1,1.753,4.191,5.9,5.9,0,0,1-1.545,4.281,8.3,8.3,0,0,1-6.124,2.2,8.9,8.9,0,0,1-2.081-.178v8.026h-2.586Zm2.586,9.661a8.673,8.673,0,0,0,2.14.208c3.122,0,5.024-1.516,5.024-4.281,0-2.645-1.872-3.924-4.727-3.924a10.853,10.853,0,0,0-2.437.208Z" transform="translate(-60.327 -19.093)" fill="#333843"/>
    <rect id="Rectangle_4692" data-name="Rectangle 4692" width="2.586" height="20.035" transform="translate(162.01 46.417)" fill="#333843"/>
    <path id="Path_988" data-name="Path 988" d="M241.76,67.771h-6.094v-2.2H250.5v2.2h-6.124V85.607H241.76Z" transform="translate(-68.841 -19.154)" fill="#333843"/>
    <path id="Path_989" data-name="Path 989" d="M259.236,79.3l-2.081,6.3H254.48l6.807-20.035h3.121l6.837,20.035h-2.765l-2.14-6.3Zm6.569-2.021-1.962-5.766c-.446-1.308-.743-2.5-1.041-3.657h-.059c-.3,1.189-.624,2.408-1.011,3.627l-1.962,5.8Z" transform="translate(-74.336 -19.154)" fill="#333843"/>
    <path id="Path_990" data-name="Path 990" d="M282.322,65.571h2.586V83.436h8.561v2.17H282.322Z" transform="translate(-82.469 -19.154)" fill="#333843"/>
  </g>
</svg>
