<?xml version="1.0" encoding="utf-8"?>
<!-- Generator: Adobe Illustrator 26.0.2, SVG Export Plug-In . SVG Version: 6.00 Build 0)  -->
<svg version="1.1" id="Layer_1" xmlns="http://www.w3.org/2000/svg" xmlns:xlink="http://www.w3.org/1999/xlink" x="0px" y="0px"
	 viewBox="0 0 51.2 51.2" style="enable-background:new 0 0 51.2 51.2;" xml:space="preserve">
<style type="text/css">
	.st0{fill:#333843;}
</style>
<g>
	<g id="Icon">
		<path id="Path_1038" class="st0" d="M11.9,51.2c-0.3-0.3-0.6-0.5-0.9-0.8c-3.5-3.5-7-7-10.5-10.6c-0.7-0.8-0.8-1.2,0-1.9
			c1.4-1.5,2.9-2.9,4.3-4.4c0.6-0.7,1.6-1.1,2.5-1.1c0.2,0,0.4-0.1,0.5-0.2c3.3-5.8,10.6-7.3,15.8-5.2c0.3,0.1,0.5,0.1,0.8,0.1
			c3.4,0,6.8,0,10.2,0c1.4-0.1,2.8,0.5,3.7,1.6c0.1-0.2,0.2-0.4,0.3-0.5c1.9-2,3.8-3.9,5.7-5.9c1.6-1.6,4.1-1.6,5.7,0
			c0.3,0.3,0.5,0.6,0.7,1c0.7,1.5,0.5,3.2-0.5,4.5c-1.8,2.2-3.7,4.4-5.5,6.6c-1,1.1-1.9,2.3-2.8,3.4c-1.7,2.1-4.3,3.3-7,3.3
			c-4.3,0-8.6,0-12.9,0c-1.3,0.1-2.5,0.7-3.3,1.8c-0.1,0.1-0.1,0.2,0,0.4c0.3,1.1-0.1,2.2-0.9,3c-1.5,1.5-3,3-4.5,4.4
			c-0.2,0.2-0.4,0.3-0.6,0.5L11.9,51.2z M17.3,41.4c0.2-0.1,0.3-0.3,0.4-0.4c1.2-1.3,2.8-1.9,4.6-1.8c4.1,0.1,8.3,0,12.4,0
			c2.2,0.1,4.3-0.9,5.7-2.6c0.9-1.1,1.8-2.1,2.7-3.2c1.9-2.3,3.8-4.5,5.7-6.8c0.7-0.8,0.6-2.1-0.2-2.8c-0.8-0.7-2-0.6-2.7,0.1
			c-2.1,2.2-4.3,4.4-6.4,6.6c-0.1,0.1-0.2,0.3-0.2,0.4c0.2,2.2-1.5,4.2-3.7,4.3c-0.2,0-0.5,0-0.7,0c-2.4,0-4.9,0-7.3,0
			c-0.2,0-0.4,0-0.6,0c-0.5-0.1-0.9-0.6-0.8-1.1c0.1-0.5,0.4-0.8,0.9-0.8c0.2,0,0.4,0,0.5,0c2.4,0,4.9,0,7.3,0c0.2,0,0.4,0,0.6,0
			c1.1-0.2,1.8-1.2,1.7-2.2c-0.1-0.8-0.7-1.4-1.4-1.6c-0.3-0.1-0.7-0.1-1-0.1c-3.5,0-7.1,0-10.6,0c-0.3,0-0.7,0-1-0.2
			c-2.2-0.9-4.5-1.1-6.8-0.6c-2.8,0.5-5.3,2.3-6.7,4.7c-0.2,0.2-0.2,0.5,0,0.7c0,0,0,0,0.1,0c0.7,0.7,1.4,1.4,2.1,2L17.3,41.4
			 M12.5,48.8c1.3-1.3,2.6-2.7,3.9-4.1c0.4-0.4,0.3-1-0.1-1.4c0,0-0.1-0.1-0.1-0.1c-2.7-2.7-5.5-5.5-8.2-8.2c-0.3-0.5-1-0.6-1.4-0.2
			c-0.1,0.1-0.2,0.2-0.3,0.3c-0.9,0.9-1.8,1.8-2.6,2.7c-0.4,0.4-0.9,0.8-1.3,1.3L12.5,48.8"/>
		<path id="Path_1039" class="st0" d="M29.8,22c-6.1,0-11-4.9-11-11c0-6.1,4.9-11,11-11c6.1,0,11,4.9,11,11c0,0,0,0,0,0
			C40.8,17.1,35.9,22,29.8,22 M29.8,20c5,0,9-4,9-9s-4-9-9-9c-5,0-9,4-9,9C20.8,15.9,24.8,20,29.8,20C29.8,20,29.8,20,29.8,20"/>
		<path id="Path_1040" class="st0" d="M23.8,34.1c0,0.5-0.4,1-1,1c-0.6,0-1-0.5-1-1c0-0.6,0.5-1,1-1c0,0,0,0,0,0
			C23.4,33.1,23.9,33.5,23.8,34.1C23.8,34.1,23.8,34.1,23.8,34.1"/>
		<path id="Path_1041" class="st0" d="M28.6,6.1c0-0.4,0-0.7,0-1.1c0-0.6,0.4-1,1-1c0,0,0,0,0,0c0.5,0,1,0.4,1,0.9c0,0,0,0.1,0,0.1
			c-0.1,0.8,0.1,1.3,0.9,1.6c0.2,0.1,0.4,0.3,0.6,0.5c0.4,0.4,0.4,1,0.1,1.4c0,0,0,0,0,0c-0.3,0.4-0.9,0.4-1.4,0.1
			c-0.2-0.2-0.4-0.3-0.6-0.4C29.8,7.9,29.3,8,29,8.3c-0.3,0.2-0.4,0.7-0.3,1c0.1,0.4,0.5,0.7,1,0.7c1.7,0,3,1.4,3,3.1
			c0,1.2-0.7,2.2-1.7,2.7c-0.1,0.1-0.2,0.2-0.3,0.4c0,0.3,0,0.6,0,0.9c0,0.5-0.4,1-1,1c0,0,0,0,0,0c-0.5,0-0.9-0.3-1-0.9
			c0,0,0-0.1,0-0.1c0.2-0.7-0.2-1.5-0.9-1.7c-0.4-0.2-0.7-0.5-0.9-0.8c-0.3-0.4-0.3-1,0.1-1.3c0,0,0,0,0,0c0.4-0.4,1-0.4,1.4,0
			c0.2,0.2,0.4,0.4,0.7,0.6c0.4,0.3,0.9,0.3,1.3,0c0.3-0.2,0.5-0.7,0.4-1.1C30.4,12.3,30,12,29.5,12c-1.7-0.1-2.9-1.4-2.9-3.1
			c0-0.4,0.1-0.9,0.3-1.2C27.3,7,27.9,6.4,28.6,6.1"/>
	</g>
</g>
</svg>
