<?xml version="1.0" encoding="utf-8"?>
<!-- Generator: Adobe Illustrator 26.0.2, SVG Export Plug-In . SVG Version: 6.00 Build 0)  -->
<svg version="1.1" id="Layer_1" xmlns="http://www.w3.org/2000/svg" xmlns:xlink="http://www.w3.org/1999/xlink" x="0px" y="0px"
	 viewBox="0 0 44 44" style="enable-background:new 0 0 44 44;" xml:space="preserve">
<style type="text/css">
	.st0{fill:#333843;}
</style>
<g>
	<g id="Icon" transform="translate(0.165 0.165)">
		<path id="Path_1032" class="st0" d="M23.2,0c0.8,0.1,1.6,0.2,2.4,0.3c0.2,0,0.3,0.1,0.5,0.1c0.5,0.1,0.8,0.5,0.7,1c0,0,0,0,0,0
			c-0.1,0.5-0.6,0.8-1.1,0.7c-1.4-0.2-2.7-0.3-4.1-0.4c-8,0.3-14,3.9-17.7,11C0.3,20,1.1,27.1,5.7,33.8c0.1,0.1,0.2,0.2,0.2,0.3
			c0.6-0.2,1.2-0.3,1.8-0.3c1.6,0,3,1.1,3.4,2.6c0.5,1.9-0.6,3.9-2.5,4.4c-1.2,0.3-2.5,0-3.4-0.8c-1.2-1.1-1.5-2.8-0.8-4.2
			c0.2-0.3,0.1-0.6-0.1-0.8c-2.5-3.3-4-7.3-4.3-11.5c0-0.1,0-0.2-0.1-0.4v-2.6c0.1-1,0.2-1.9,0.4-2.9C2.2,8.8,9.2,1.9,18,0.4
			c0.8-0.1,1.6-0.2,2.4-0.3H23.2z M7.7,35.5c-1,0-1.9,0.9-1.9,1.9c0,1,0.9,1.9,1.9,1.9c1,0,1.9-0.9,1.9-1.9c0,0,0,0,0,0
			C9.6,36.3,8.7,35.5,7.7,35.5"/>
		<path id="Path_1033" class="st0" d="M20.5,43.6c-0.8-0.1-1.6-0.2-2.4-0.3c-0.1,0-0.3,0-0.4-0.1c-0.5,0-0.8-0.5-0.8-0.9
			c0,0,0-0.1,0-0.1c0.1-0.5,0.6-0.8,1-0.7c0,0,0,0,0,0c1.4,0.2,2.8,0.3,4.2,0.4c8-0.1,15.2-5,18.3-12.5c2.7-7,1.8-13.5-2.5-19.6
			c-0.1-0.1-0.1-0.2-0.2-0.2c0,0,0,0,0,0c-0.6,0.2-1.2,0.3-1.8,0.3c-1.6,0-3-1.1-3.4-2.6C32,5.4,33.1,3.4,35,2.9
			c1.2-0.3,2.5,0,3.4,0.8c1.2,1.1,1.5,2.8,0.8,4.2C39,8.2,39,8.5,39.2,8.7c2.5,3.3,4,7.3,4.3,11.5c0,0.1,0,0.2,0.1,0.4v2.6
			c0,0.1-0.1,0.2-0.1,0.3c-0.1,1-0.2,2-0.4,3c-1.9,8.6-8.8,15.2-17.5,16.7c-0.8,0.1-1.6,0.2-2.4,0.3L20.5,43.6z M36,8.2
			c1,0,1.9-0.8,1.9-1.9S37,4.5,36,4.5c-1,0-1.9,0.8-1.9,1.9c0,0,0,0,0,0C34.1,7.4,34.9,8.2,36,8.2"/>
		<path id="Path_1034" class="st0" d="M33.6,28.6c0.3,0.3,0.6,0.6,1,0.9c0.4,0.3,0.5,0.8,0.2,1.2c-0.1,0.1-0.1,0.1-0.2,0.2
			c-1.2,1.2-2.3,2.4-3.5,3.5c-0.3,0.4-0.9,0.5-1.3,0.2c-0.1-0.1-0.2-0.1-0.2-0.2c-0.3-0.3-0.6-0.6-1-1c0,0-0.1,0,0,0
			c-1.1,0.4-2,0.8-3,1.2c-0.1,0.1-0.2,0.2-0.2,0.4c0,0.4,0,0.9,0,1.3c0,0.5-0.3,0.9-0.8,0.9c0,0-0.1,0-0.1,0c-1.7,0-3.5,0-5.2,0
			c-0.5,0-0.9-0.3-0.9-0.8c0,0,0-0.1,0-0.1c0-0.4,0-0.9,0-1.3c0-0.2-0.1-0.4-0.3-0.4c-1-0.4-1.9-0.8-3-1.2c-0.3,0.3-0.6,0.6-0.9,1
			c-0.3,0.4-0.8,0.5-1.2,0.2c-0.1-0.1-0.1-0.1-0.2-0.2c-1.2-1.2-2.4-2.4-3.6-3.6c-0.4-0.3-0.5-0.8-0.2-1.2C9,29.7,9,29.7,9.1,29.6
			c0.3-0.3,0.7-0.7,1-0.9c-0.4-1.1-0.8-2.1-1.2-3.1c-0.1-0.1-0.2-0.2-0.3-0.2c-0.4,0-0.9,0-1.3,0c-0.5,0-0.9-0.3-0.9-0.7
			c0-0.1,0-0.1,0-0.2c0-1.7,0-3.4,0-5.2c-0.1-0.5,0.3-0.9,0.7-0.9c0.1,0,0.1,0,0.2,0c0.4,0,0.9,0,1.3,0c0.1,0,0.3-0.1,0.4-0.2
			c0.4-1,0.8-2,1.2-3.1c-0.3-0.3-0.6-0.6-1-0.9c-0.4-0.3-0.5-0.8-0.2-1.2C9,12.8,9,12.7,9.1,12.7c1.2-1.2,2.4-2.4,3.6-3.6
			c0.3-0.4,0.8-0.5,1.2-0.2C14,9,14,9,14.1,9.1c0.3,0.3,0.6,0.6,0.9,0.8c0.1,0.1,0.3,0.1,0.4,0.1c0.9-0.4,1.8-0.7,2.7-1.1
			c0.1-0.1,0.2-0.2,0.3-0.3c0-0.4,0-0.9,0-1.3c0-0.5,0.3-0.8,0.8-0.9c0,0,0.1,0,0.1,0c1.7,0,3.5,0,5.2,0c0.5,0,0.9,0.3,0.9,0.8
			c0,0,0,0.1,0,0.1c0,0.4,0,0.9,0,1.3c0,0.1,0.1,0.3,0.2,0.3c1,0.4,2,0.8,3.1,1.2c0.3-0.3,0.6-0.6,0.9-1c0.3-0.4,0.8-0.5,1.2-0.2
			C30.9,9,30.9,9,31,9.1c1.2,1.2,2.4,2.4,3.6,3.6c0.4,0.3,0.5,0.8,0.2,1.2c-0.1,0.1-0.1,0.1-0.2,0.2c-0.3,0.3-0.7,0.7-1,0.9
			c0.4,1.1,0.8,2.1,1.2,3.1c0.1,0.1,0.2,0.2,0.3,0.2c0.4,0,0.9,0,1.3,0c0.5-0.1,0.9,0.3,0.9,0.7c0,0.1,0,0.1,0,0.2
			c0,1.7,0,3.4,0,5.2c0.1,0.5-0.3,0.9-0.8,0.9c-0.1,0-0.1,0-0.2,0c-0.4,0-0.9,0-1.3,0c-0.1,0-0.3,0.1-0.3,0.2
			C34.4,26.6,34,27.6,33.6,28.6 M35.6,20h-0.7c-0.2,0-0.4,0-0.6,0c-0.5,0.1-0.9-0.3-1-0.8c-0.3-1.3-0.8-2.6-1.6-3.7
			c-0.3-0.4-0.2-0.9,0.1-1.2c0.3-0.3,0.6-0.6,0.9-0.9l-2.6-2.6c-0.3,0.3-0.5,0.6-0.8,0.9c-0.3,0.4-0.8,0.5-1.2,0.2c0,0,0,0-0.1,0
			c-1.1-0.7-2.3-1.2-3.6-1.5c-0.5,0-0.9-0.5-0.8-1c0,0,0,0,0-0.1c0-0.4,0-0.8,0-1.3h-3.5c0,0,0,0.1,0,0.1c0,0.4,0,0.8,0,1.2
			c0.1,0.5-0.3,0.9-0.8,1c0,0,0,0,0,0c-1.3,0.3-2.6,0.8-3.7,1.5c-0.4,0.3-0.9,0.2-1.2-0.1c0,0,0,0,0,0c-0.3-0.3-0.6-0.6-0.8-0.9
			l-2.6,2.6c0.3,0.3,0.6,0.5,0.9,0.8c0.4,0.3,0.5,0.8,0.2,1.2c0,0,0,0,0,0c-0.7,1.1-1.2,2.3-1.5,3.6C10.2,19.8,10,20,9.3,20
			c-0.4,0-0.8,0-1.2,0v3.6c0.5,0,0.9,0,1.3,0c0.5-0.1,0.9,0.3,0.9,0.7c0.3,1.3,0.8,2.6,1.6,3.8c0.3,0.4,0.2,0.9-0.1,1.2c0,0,0,0,0,0
			c-0.3,0.3-0.6,0.6-1,0.9l2.7,2.6c0.3-0.3,0.5-0.6,0.8-0.9c0.3-0.4,0.8-0.5,1.2-0.2c0,0,0,0,0.1,0c1.1,0.7,2.3,1.2,3.6,1.5
			c0.7,0.2,0.9,0.4,0.9,1.1c0,0.4,0,0.8,0,1.2h3.6c0,0,0-0.1,0-0.1c0-0.4,0-0.8,0-1.1c-0.1-0.5,0.3-1,0.7-1c0,0,0.1,0,0.1,0
			c1.3-0.3,2.5-0.8,3.6-1.5c0.4-0.3,0.9-0.3,1.2,0.1c0,0,0,0,0,0.1c0.3,0.3,0.6,0.6,0.8,0.9l2.6-2.6c-0.3-0.3-0.6-0.6-0.9-0.9
			c-0.4-0.3-0.4-0.8-0.1-1.2c0,0,0,0,0,0c0.7-1.1,1.2-2.4,1.5-3.7c0-0.5,0.5-0.8,0.9-0.8c0,0,0,0,0,0c0.4,0,0.9,0,1.3,0L35.6,20z"/>
		<path id="Path_1035" class="st0" d="M29.7,3.3c-0.5,0-0.8-0.4-0.8-0.9c0-0.5,0.4-0.8,0.9-0.8c0.5,0,0.8,0.4,0.8,0.8c0,0,0,0,0,0
			C30.5,2.9,30.1,3.3,29.7,3.3"/>
		<path id="Path_1036" class="st0" d="M14.9,41.3c0,0.5-0.4,0.8-0.8,0.8c0,0,0,0,0,0c-0.5,0-0.8-0.4-0.8-0.9c0-0.5,0.4-0.8,0.9-0.8
			c0,0,0,0,0,0C14.5,40.5,14.9,40.8,14.9,41.3"/>
		<path id="Path_1037" class="st0" d="M21.8,14.8c3.9,0,7,3.1,7,7c0,3.9-3.1,7-7,7c-3.9,0-7-3.1-7-7c0,0,0,0,0,0
			C14.8,18,18,14.8,21.8,14.8 M27.2,21.8c0-2.9-2.4-5.3-5.3-5.3s-5.3,2.4-5.3,5.3c0,2.9,2.4,5.3,5.3,5.3c0,0,0,0,0,0
			C24.8,27.1,27.2,24.8,27.2,21.8"/>
	</g>
</g>
</svg>
