<?xml version="1.0" encoding="utf-8"?>
<!-- Generator: Adobe Illustrator 26.0.2, SVG Export Plug-In . SVG Version: 6.00 Build 0)  -->
<svg version="1.1" id="Layer_1" xmlns="http://www.w3.org/2000/svg" xmlns:xlink="http://www.w3.org/1999/xlink" x="0px" y="0px"
	 viewBox="0 0 46.6 46.6" style="enable-background:new 0 0 46.6 46.6;" xml:space="preserve">
<style type="text/css">
	.st0{fill:#333843;}
</style>
<g>
	<g id="Icon">
		<path id="Path_1010" class="st0" d="M31.4,24h-0.7c-0.2,0-0.4-0.2-0.4-0.4V9.5c0-0.1-0.1-0.2-0.2-0.2l0,0h-26
			c-1.3-0.1-2.4,0.8-2.6,2.1c0,0.2,0,0.3,0,0.5c0,0.7,0,1.3,0,2c0,0.4-0.3,0.8-0.8,0.8C0.4,14.7,0,14.4,0,14c0,0,0,0,0-0.1
			c0-1.1,0-2.2,0.2-3.3c0.4-1.8,2.1-3,3.9-2.9c7.5,0,14.9,0,22.4,0h3.6c0.1,0,0.2-0.1,0.2-0.2c0,0,0,0,0,0V6.4
			c0-0.1-0.1-0.2-0.2-0.2l0,0c-0.4,0-0.8,0-1.2,0c-0.4,0-0.7-0.2-0.9-0.5c-0.1-0.3,0-0.7,0.2-0.9c1.5-1.5,3-3,4.5-4.5
			C33,0,33.5-0.1,33.8,0.2c0.1,0,0.1,0.1,0.2,0.2c1.5,1.5,3,3,4.5,4.5c0.3,0.2,0.4,0.6,0.2,0.9c-0.1,0.3-0.5,0.5-0.8,0.5
			c-0.4,0-0.8,0-1.3,0c-0.1,0-0.2,0.1-0.2,0.2v1.2c0,0.1,0.1,0.2,0.1,0.2c0.1,0,0.2,0,0.3,0c0.8,0,1.6,0,2.5,0
			c2.1-0.1,4,1.5,4.1,3.7c0,0.1,0,0.3,0,0.4c0,4.6,0,9.2,0,13.8v1c0,0.3-0.3,0.6-0.6,0.6h-0.4c-0.3,0-0.6-0.3-0.6-0.6
			c0-4.8,0-9.7,0-14.5c0-1.9-0.9-2.8-2.7-2.8h-2.5c-0.1,0-0.2,0.1-0.2,0.2v13.2c0,0.3-0.2,0.5-0.5,0.5h-0.5c-0.3,0-0.5-0.2-0.5-0.5
			c0-5.6,0-11.3,0-16.9c0-0.8,0.1-1,0.7-1.1c0.1,0,0.1-0.1,0.1-0.2c0,0,0-0.1,0-0.1l-2.2-2.2c-0.1-0.1-0.2-0.1-0.2,0c0,0,0,0,0,0
			L31,4.4C31,4.5,31,4.6,31,4.6c0,0,0.1,0,0.1,0c0.4,0,0.7,0.3,0.7,0.7c0,0.1,0,0.2,0,0.3c0,6,0,12,0,17.9
			C31.8,23.8,31.6,24,31.4,24"/>
		<path id="Path_1011" class="st0" d="M13.2,29.5h1.6v-0.5c0-3.6,0-7.2,0-10.8c0-0.9,0.2-1.1,1.1-1.1c1.4,0,2.7,0,4.1,0
			c0.7,0,1,0.3,1,1c0,3.6,0,7.2,0,10.9v0.5h1.6v-0.5c0-5.4,0-10.8,0-16.1c0-0.9,0.2-1.1,1.1-1.1c1.4,0,2.8,0,4.2,0
			c0.4-0.1,0.8,0.2,0.9,0.7c0,0.1,0,0.1,0,0.2c0,4.3,0,8.6,0,12.9c0,0,0,0.1,0,0.1c-0.8,0-1.5-0.7-1.5-1.5V13.2h-3.1V31H4.7
			C4.3,31,4,30.7,4,30.3c0-0.4,0.3-0.8,0.8-0.8H7v-0.6c0-1.8,0-3.6,0-5.4c0-0.5,0.4-1,1-1c1.4,0,2.8,0,4.2,0c0.7,0,1,0.3,1,1
			C13.2,25.5,13.2,27.4,13.2,29.5 M19.4,18.7h-3v10.8h3L19.4,18.7z M8.6,29.5h3v-5.4h-3V29.5z"/>
		<path id="Path_1012" class="st0" d="M13.2,45.8L13.2,45.8c0-0.4,0.3-0.8,0.8-0.8h1l1.9-6.2H4.2c-2.3,0-4.2-1.9-4.2-4.2
			c0-5.9,0-11.8,0-17.7c0-0.3,0.2-0.6,0.6-0.6c0,0,0,0,0,0H1c0.3,0,0.6,0.2,0.6,0.6l0,0v15.7h21.7v1.6H1.7c-0.4,1.3,0.3,2.6,1.6,3
			c0.3,0.1,0.5,0.1,0.8,0.1c6.5,0,12.9,0,19.4,0h0c0.3,0,0.6,0.3,0.6,0.6v0.3c0,0.3-0.3,0.6-0.6,0.6h-0.2c-1.5,0-2.9,0-4.4,0
			c-0.2,0-0.4,0-0.5,0.3c-0.6,1.9-1.1,3.9-1.7,5.8c0,0,0,0.1,0,0.1h10.2l-0.6-2.1c-0.1-0.4,0.1-0.8,0.5-0.9h0c0.4-0.1,0.8,0.1,1,0.5
			c0,0,0,0,0,0l0.8,2.6h1c0.4,0,0.8,0.3,0.8,0.8c0,0.4-0.3,0.8-0.8,0.8c0,0,0,0,0,0H14C13.6,46.5,13.2,46.2,13.2,45.8"/>
		<path id="Path_1013" class="st0" d="M38.9,42.2c-4.4,2.6-10.2,1.1-12.8-3.3c-2.6-4.4-1.1-10.2,3.3-12.8c4.4-2.6,10.2-1.1,12.8,3.3
			c1.7,2.9,1.7,6.6,0,9.5l2.9,2.9c0.3,0.3,0.5,0.5,0.8,0.8c0.9,0.9,0.9,2.4,0,3.3c-0.9,0.9-2.3,0.9-3.2,0c0,0,0,0,0,0
			c-1.2-1.1-2.3-2.3-3.5-3.5C39.1,42.3,39,42.3,38.9,42.2 M34.2,26.4c-4.3,0-7.8,3.5-7.8,7.8c0,4.3,3.5,7.8,7.8,7.8
			c4.3,0,7.8-3.5,7.8-7.8c0,0,0,0,0,0C41.9,29.8,38.4,26.4,34.2,26.4 M40.2,41.3c1.2,1.2,2.3,2.3,3.5,3.5c0.3,0.3,0.8,0.3,1.1,0
			c0.3-0.3,0.3-0.8,0-1.1c0,0,0,0,0,0c-1.2-1.2-2.3-2.3-3.5-3.5L40.2,41.3"/>
		<path id="Path_1014" class="st0" d="M38.1,0.9L38.1,0.9c0-0.4,0.4-0.8,0.8-0.8c0,0,0.1,0,0.1,0c1.8,0.4,3.2,1.8,3.6,3.6
			c0.1,0.4-0.2,0.8-0.6,0.9c-0.4,0.1-0.8-0.2-0.9-0.6l0,0c-0.1-0.6-0.4-1.1-0.8-1.5c-0.4-0.4-1-0.7-1.6-0.8
			C38.3,1.6,38.1,1.2,38.1,0.9"/>
		<path id="Path_1015" class="st0" d="M3.9,11.6L3.9,11.6c0-0.4,0.3-0.7,0.7-0.7h0c0.4,0,0.7,0.3,0.7,0.7c0,0.4-0.3,0.7-0.7,0.7h0
			C4.3,12.4,3.9,12.1,3.9,11.6"/>
		<path id="Path_1016" class="st0" d="M7.8,10.9L7.8,10.9c0.4,0,0.8,0.3,0.8,0.7v0c0,0.4-0.3,0.7-0.7,0.7h0c-0.4,0-0.7-0.3-0.7-0.7
			v0C7.1,11.2,7.4,10.9,7.8,10.9"/>
		<path id="Path_1017" class="st0" d="M11.6,11.6L11.6,11.6c0,0.4-0.3,0.8-0.7,0.8h0c-0.4,0-0.7-0.3-0.7-0.7v0
			c0-0.4,0.3-0.7,0.7-0.7h0C11.3,10.9,11.6,11.2,11.6,11.6"/>
		<path id="Path_1018" class="st0" d="M34.2,27.9c3.4,0,6.2,2.8,6.1,6.3c0,3.4-2.8,6.2-6.3,6.1c-3.4,0-6.2-2.8-6.1-6.3c0,0,0,0,0,0
			C28,30.6,30.8,27.9,34.2,27.9 M29.6,33.4c-0.4,2.5,1.3,4.9,3.8,5.4c2.5,0.4,4.9-1.3,5.3-3.8c0.4-2.5-1.3-4.9-3.8-5.4
			c-0.5-0.1-1-0.1-1.5,0C31.5,29.9,29.9,31.4,29.6,33.4"/>
		<path id="Path_1019" class="st0" d="M34.1,31.9L34.1,31.9c0,0.4-0.2,0.7-0.5,0.8c-0.4,0.2-0.8,0.5-0.9,0.9
			c-0.1,0.3-0.4,0.5-0.7,0.5h-0.1c-0.4,0-0.7-0.3-0.7-0.8c0-0.1,0-0.2,0-0.2c0.3-0.9,1-1.6,1.9-1.9c0.4-0.1,0.8,0.1,0.9,0.5
			C34.1,31.8,34.2,31.8,34.1,31.9"/>
	</g>
</g>
</svg>
