<?xml version="1.0" encoding="utf-8"?>
<!-- Generator: Adobe Illustrator 26.0.2, SVG Export Plug-In . SVG Version: 6.00 Build 0)  -->
<svg version="1.1" id="Layer_1" xmlns="http://www.w3.org/2000/svg" xmlns:xlink="http://www.w3.org/1999/xlink" x="0px" y="0px"
	 viewBox="0 0 58 58" style="enable-background:new 0 0 58 58;" xml:space="preserve">
<style type="text/css">
	.st0{fill:#333843;}
	.st1{fill:#B5363A;}
</style>
<g>
	<g id="Icon">
		<path id="Path_948" class="st0" d="M47.3,58c-0.7-0.2-1.4-0.3-2.1-0.5c-4.9-1.7-7.6-6.9-6.1-11.9c0.2-0.7,0.6-1,1.1-0.8
			c0.5,0.2,0.7,0.6,0.5,1.3c-1,3,0,6.4,2.5,8.4c0.1,0.1,0.1,0.1,0.3,0.2c0-0.4,0.1-0.7,0.1-1c0.2-1.3,1.3-2.3,2.6-2.3
			c1.4,0,2.7,0,4.1,0c1.5,0,2.7,1.2,2.7,2.7c0,0.2,0,0.4,0,0.6c3.5-2.6,4.2-7.6,1.5-11.1s-7.6-4.2-11.1-1.5
			c-0.2,0.2-0.4,0.3-0.6,0.5c-0.1,0.1-0.2,0.2-0.3,0.3c-0.3,0.3-0.9,0.3-1.2,0c-0.3-0.3-0.3-0.8,0-1.2c0,0,0,0,0.1-0.1
			c1-1,2.2-1.8,3.6-2.3c5-1.8,10.5,0.9,12.3,5.9c1.8,5-0.9,10.5-5.9,12.3c-0.6,0.2-1.2,0.4-1.8,0.4c-0.1,0-0.3,0.1-0.4,0.1L47.3,58z
			 M48.4,53h-1.8c0,0-0.1,0-0.1,0c-0.6,0-1.1,0.5-1.1,1.1c0,0,0,0,0,0c0,0.4,0,0.8,0,1.1c0,0.3,0.1,0.5,0.4,0.6
			c1.5,0.5,3.1,0.6,4.6,0.2c1.1-0.3,1.1-0.3,1.1-1.4c0-0.2,0-0.3,0-0.5c0-0.6-0.4-1.2-1.1-1.2c-0.1,0-0.1,0-0.2,0
			C49.6,53,49,53,48.4,53"/>
		<path id="Path_949" class="st0" d="M0,8.6c0.1-0.4,0.2-0.8,0.3-1.2C1.5,2.2,6.7-1,11.9,0.2s8.4,6.4,7.2,11.6S12.6,20.2,7.4,19
			c-3.8-0.9-6.7-4.1-7.3-8c0-0.1-0.1-0.3-0.1-0.4V8.6 M17.6,9.7c0-4.4-3.5-8-7.8-8s-8,3.5-8,7.8s3.5,8,7.8,8c0,0,0,0,0,0
			C13.9,17.6,17.5,14.1,17.6,9.7"/>
		<path id="Path_950" class="st0" d="M0,47.4c0.1-0.4,0.2-0.8,0.2-1.2C1.4,41,6.6,37.8,11.8,39c5.2,1.2,8.4,6.4,7.2,11.5
			c-0.9,3.9-4.1,6.8-8,7.4c-0.1,0-0.2,0.1-0.3,0.1h-2c-0.1,0-0.2-0.1-0.3-0.1c-3.9-0.6-7.1-3.4-8-7.3c-0.1-0.4-0.2-0.8-0.3-1.2
			L0,47.4 M9.6,40.4c-4.4,0-7.9,3.5-7.9,7.9c0,4.4,3.5,7.9,7.9,7.9s7.9-3.5,7.9-7.9c0,0,0,0,0,0C17.5,44,14,40.4,9.6,40.4"/>
		<path id="Path_951" class="st0" d="M29,42.5c-0.9,0-1.8,0-2.8,0c-0.9,0-1.3-0.4-1.2-1.2c0.2-0.8-0.3-1.7-1.1-1.9c0,0,0,0,0,0
			c-0.7-0.3-1.4-0.7-2-1.2c-0.3-0.2-0.4-0.2-0.7-0.1c-0.3,0.2-0.6,0.4-1,0.6c-0.4,0.3-1,0.1-1.3-0.3c0,0,0,0,0-0.1
			c-1-1.7-2-3.5-3-5.2c-0.3-0.4-0.2-1,0.2-1.2c0.1,0,0.1-0.1,0.2-0.1c0.9-0.2,1.5-1.2,1.2-2.1c0-0.1,0-0.1-0.1-0.2
			c-0.1-0.7,0-1.3,0.1-2c0-0.4,0-0.6-0.4-0.8c-0.3-0.1-0.6-0.3-0.8-0.5c-0.5-0.2-0.7-0.8-0.4-1.3c0,0,0-0.1,0-0.1c1-1.8,2-3.5,3-5.2
			c0.2-0.4,0.7-0.6,1.2-0.4c0.1,0,0.1,0.1,0.2,0.1c0.7,0.7,1.7,0.7,2.4,0c0,0,0.1-0.1,0.1-0.1c0.6-0.4,1.2-0.7,1.8-1
			c0.3-0.1,0.4-0.3,0.4-0.6c0-0.4,0-0.8,0-1.1c0-0.5,0.4-1,0.9-1c0,0,0,0,0,0c2,0,4,0,6,0c0.5,0,1,0.4,1,0.9c0,0,0,0,0,0.1
			c0,0,0,0,0,0.1c-0.3,1.2,0.4,1.7,1.4,2.1c0.6,0.3,1.2,0.7,1.8,1.1c0.2,0.2,0.4,0.2,0.6,0.1c0.3-0.2,0.6-0.4,1-0.6
			c0.4-0.3,1-0.2,1.3,0.3c0,0,0,0.1,0.1,0.1c1,1.7,2,3.5,3,5.2c0.3,0.4,0.2,1-0.2,1.3c-0.1,0-0.1,0.1-0.2,0.1
			c-0.9,0.2-1.4,1.2-1.2,2.1c0,0.1,0,0.1,0,0.1c0.1,0.7,0,1.4-0.1,2c0,0.4,0,0.6,0.4,0.8c0.3,0.1,0.6,0.3,0.8,0.5
			c0.5,0.2,0.7,0.8,0.4,1.3c0,0,0,0.1-0.1,0.1c-1,1.7-2,3.5-3,5.2C39,38.8,38.4,39,38,38.8c-0.1,0-0.1-0.1-0.2-0.1
			c-0.7-0.7-1.8-0.7-2.5,0c0,0-0.1,0.1-0.1,0.1c-0.5,0.4-1.2,0.7-1.8,0.9c-0.3,0.1-0.5,0.3-0.4,0.6c0,0.3,0,0.7,0,1
			c0,0.5-0.4,1-0.9,1c0,0-0.1,0-0.1,0C30.9,42.5,30,42.5,29,42.5 M40.4,32.9c-0.4-0.2-0.7-0.4-1-0.6c-0.5-0.2-0.7-0.7-0.6-1.2
			c0.3-1.4,0.3-2.8,0-4.2c-0.1-0.5,0.1-1,0.6-1.2c0.3-0.2,0.7-0.4,1-0.6l-2.3-4c-0.3,0.2-0.6,0.4-0.9,0.5C36.6,22,36,22,35.6,21.5
			c0,0,0,0,0,0c-1-0.9-2.1-1.5-3.4-1.9c-0.7-0.2-0.9-0.5-0.9-1.3c0-0.3,0-0.7,0-1h-4.7c0,0.4,0,0.8,0,1.2c0,0.5-0.3,0.9-0.7,1
			c-1.3,0.4-2.6,1.1-3.6,2.1C22,21.9,21.4,22,21,21.7c-0.3-0.2-0.6-0.4-1-0.6l-2.3,4c0.4,0.2,0.7,0.4,1,0.6c0.5,0.2,0.7,0.7,0.6,1.2
			c-0.3,1.4-0.3,2.8,0,4.2c0.1,0.5-0.1,1-0.6,1.2c-0.3,0.2-0.7,0.4-1,0.6l2.3,4l0.9-0.5c0.5-0.4,1.2-0.4,1.6,0.1c0,0,0,0,0.1,0.1
			c1,0.8,2.1,1.5,3.3,1.9c0.5,0.1,0.9,0.6,0.9,1.2c0,0.4,0,0.8,0,1.1h4.7c0-0.4,0-0.8,0-1.2c0-0.5,0.3-1,0.8-1.1
			c1.3-0.4,2.5-1.1,3.5-2.1c0.3-0.3,0.9-0.4,1.3-0.1c0.3,0.2,0.7,0.4,1.1,0.6L40.4,32.9"/>
		<path id="Path_952" class="st0" d="M40.4,9.7c0,0.4,0,0.6,0.1,0.8c0.1,0.5-0.2,0.9-0.7,1c0,0,0,0-0.1,0c-0.5,0.1-0.9-0.3-0.9-0.7
			c0,0,0-0.1,0-0.1c-0.2-1.7,0-3.4,0.7-5c2.1-4.9,7.8-7.1,12.7-4.9s7.1,7.8,4.9,12.7s-7.8,7.1-12.7,4.9c-1.6-0.7-2.9-1.8-3.9-3.2
			c-0.1-0.2-0.3-0.4-0.4-0.6c-0.2-0.4,0-0.8,0.3-1c0.3-0.2,0.8-0.2,1,0.1c0.1,0.1,0.2,0.3,0.3,0.4c2.5,3.6,7.5,4.4,11.1,1.9
			c3.6-2.5,4.4-7.5,1.9-11.1s-7.5-4.4-11.1-1.9c-1.8,1.3-2.9,3.2-3.2,5.3C40.5,8.9,40.5,9.4,40.4,9.7"/>
		<path id="Path_953" class="st1" d="M49.2,14.2c-0.1,0.9-0.3,1.2-0.8,1.2s-0.8-0.3-0.9-1.1c-0.5-0.2-0.9-0.4-1.4-0.6
			c-0.6-0.3-0.8-0.8-0.5-1.2s0.7-0.5,1.3-0.2c0.5,0.2,1,0.3,1.6,0.3c0.6,0,1-0.4,1.1-1c0.1-0.5-0.2-1.1-0.7-1.2
			c-0.5-0.2-1-0.4-1.5-0.6c-1.3-0.4-2.1-1.9-1.6-3.2c0.2-0.7,0.7-1.3,1.4-1.5c0.1-0.1,0.2-0.3,0.3-0.5c0.1-0.6,0.4-0.9,0.9-0.9
			s0.8,0.3,0.9,0.9c0.1,0.2,0.2,0.3,0.3,0.4c0.3,0.2,0.6,0.3,0.8,0.5c0.4,0.2,0.5,0.7,0.3,1.1c0,0,0,0,0,0c-0.3,0.4-0.7,0.5-1.2,0.2
			c-0.4-0.2-0.8-0.3-1.3-0.3c-0.4,0-0.7,0.2-0.7,0.6c0,0,0,0.1,0,0.1c0,0.3,0.2,0.6,0.4,0.8c0.4,0.2,0.9,0.4,1.3,0.6
			c1.5,0.4,2.4,2,2,3.5c-0.2,0.9-0.9,1.6-1.8,2C49.3,14.1,49.3,14.2,49.2,14.2"/>
		<path id="Path_954" class="st0" d="M29,55.4c-2.4,0-4.8-0.4-7.1-1c-0.7-0.2-1-0.6-0.8-1.1c0.1-0.5,0.6-0.7,1.2-0.5
			c2.7,0.8,5.4,1.1,8.2,0.8c1.7-0.2,3.4-0.5,5.1-0.8c0.3-0.1,0.6-0.1,0.9,0c0.2,0.2,0.4,0.5,0.4,0.8c0,0.4-0.3,0.7-0.7,0.8
			c0,0,0,0,0,0c-1.4,0.3-2.8,0.6-4.2,0.8C31,55.3,30,55.3,29,55.4"/>
		<path id="Path_955" class="st0" d="M36.9,4.5c0,0.6-0.5,1-1.2,0.8c-1.1-0.2-2.1-0.5-3.2-0.7c-3.4-0.5-6.8-0.3-10.1,0.6
			c-0.3,0.1-0.5,0.1-0.8,0.1c-0.3-0.2-0.5-0.4-0.6-0.7c-0.1-0.4,0.2-0.8,0.6-0.8c0,0,0,0,0.1,0C22.8,3.4,23.9,3.2,25,3
			c3.7-0.6,7.5-0.4,11.2,0.7C36.7,3.8,36.9,4.1,36.9,4.5"/>
		<path id="Path_956" class="st0" d="M55.3,28.9c0,2.4-0.3,4.8-1,7.1c-0.2,0.7-0.6,0.9-1.1,0.8c-0.5-0.1-0.7-0.6-0.6-1.2
			c1.2-4.4,1.2-8.9,0-13.3c-0.2-0.4,0-0.9,0.4-1.1c0.1,0,0.1,0,0.2-0.1c0.5-0.1,0.9,0.2,1,0.8C55,24.2,55.3,26.6,55.3,28.9"/>
		<path id="Path_957" class="st0" d="M4.5,21.1c0.6,0,0.9,0.5,0.8,1.3c-0.3,1.3-0.6,2.7-0.8,4.1c-0.3,3-0.1,6,0.7,8.9
			c0,0.2,0.1,0.3,0.1,0.5c0.1,0.5-0.1,0.9-0.6,1.1c0,0,0,0-0.1,0c-0.4,0.1-0.9-0.2-1-0.6c0,0,0,0,0-0.1c-0.3-1-0.5-2.1-0.7-3.1
			c-0.6-3.7-0.4-7.5,0.6-11.1C3.7,21.5,4,21.2,4.5,21.1"/>
		<path id="Path_958" class="st0" d="M51.6,46.2c0,1.8-1.5,3.2-3.3,3.2c-1.8,0-3.2-1.5-3.2-3.3c0-1.8,1.5-3.2,3.3-3.2
			C50.2,42.9,51.6,44.4,51.6,46.2C51.6,46.2,51.6,46.2,51.6,46.2 M48.4,47.6c0.8,0,1.5-0.7,1.5-1.5c0-0.8-0.7-1.5-1.5-1.5
			c-0.8,0-1.5,0.7-1.5,1.5c0,0,0,0,0,0C46.9,47,47.5,47.6,48.4,47.6"/>
		<path id="Path_959" class="st0" d="M12.8,6.5c0.2,1.1-0.2,2.3-0.9,3.1c0.8,0.8,1.1,2,0.9,3.1c0.1,0.1,0.1,0.1,0.1,0.1
			c0.7,0.2,1,0.4,1,1c0,0.5-0.4,0.8-1.2,0.8c-2,0-4,0-6.1,0c-0.8,0-1.2-0.2-1.2-0.8s0.3-0.8,1.1-0.9c0.1,0,0.1,0,0.2,0
			c-0.2-1.1,0.2-2.3,0.9-3.1c-0.8-0.8-1.1-2-0.9-3.2c-0.2,0-0.4,0-0.5-0.1C5.7,6.4,5.4,6,5.4,5.5c0,0,0,0,0,0c0-0.4,0.4-0.8,0.8-0.8
			c0,0,0,0,0,0c1.4,0,2.9,0,4.3,0c0.7,0,1.5,0,2.2,0c0.6,0,1,0.2,1,0.7c0.1,0.5-0.2,0.8-0.9,1C12.9,6.5,12.9,6.5,12.8,6.5 M11,6.5
			H8.4c0,0.8-0.2,1.6,0.6,2.1c0.4,0.3,1,0.3,1.4,0C11.2,8,11,7.2,11,6.5 M11,12.8c0-0.8,0.2-1.5-0.6-2.1c-0.4-0.3-1-0.3-1.5,0
			c-0.7,0.5-0.6,1.3-0.6,2.1H11z"/>
		<path id="Path_960" class="st1" d="M9.6,54.3c-0.4,0-0.8,0-1.2,0c-0.8,0-1.5-0.6-1.5-1.4c0,0,0,0,0,0c0-0.5,0-1.1,0-1.6
			c0-0.7-0.2-1.4-0.6-2c-1-1.3-1.2-3.1-0.3-4.6c0.8-1.5,2.4-2.3,4.1-2c0.5,0,0.9,0.2,1,0.7c0.1,0.5-0.2,0.9-0.7,1
			c-0.1,0-0.1,0-0.2,0c-0.4,0-0.9,0-1.3,0c-1.3,0.3-2.1,1.7-1.8,3c0.1,0.2,0.1,0.4,0.3,0.6c0.1,0.1,0.2,0.3,0.3,0.4
			c0.3,1,1.1,1,1.9,1c0.8,0,1.3-0.1,1.7-0.9c0.4-0.7,0.7-1.4,0.6-2.2c-0.1-0.4,0.2-0.8,0.7-0.9c0,0,0.1,0,0.1,0
			c0.4-0.1,0.8,0.2,0.9,0.7c0,0,0,0,0,0.1c0.2,1-0.1,2-0.6,2.9c-0.6,0.8-0.9,1.7-0.8,2.6c0,0.4,0,0.8,0,1.2c0,0.8-0.7,1.4-1.5,1.4
			C10.4,54.3,10,54.3,9.6,54.3 M10.6,51.1H8.7v1.4h1.9L10.6,51.1z"/>
		<path id="Path_961" class="st1" d="M28.6,21.6c4.1-0.2,7.5,2.9,7.8,7c0.2,4.1-2.9,7.5-7,7.8c-0.3,0-0.6,0-0.9,0
			c-4.1-0.3-7.1-3.9-6.8-7.9c0-0.1,0-0.3,0-0.4c0.1-0.6,0.5-1,0.9-0.9c0.5,0.1,0.8,0.5,0.7,1.1c-0.4,3.1,1.7,6,4.8,6.4
			c3.1,0.4,6-1.7,6.4-4.8c0.4-3.1-1.7-6-4.8-6.4c-1.6-0.2-3.3,0.3-4.5,1.3c-0.1,0.1-0.1,0.1-0.2,0.2c-0.5,0.5-1,0.5-1.4,0.1
			s-0.3-0.9,0.2-1.4C25.2,22.4,26.9,21.7,28.6,21.6"/>
		<path id="Path_962" class="st1" d="M29,32.7c-2,0-3.7-1.7-3.7-3.7s1.7-3.7,3.7-3.7s3.7,1.7,3.7,3.7c0,0,0,0,0,0
			C32.7,31.1,31,32.7,29,32.7 M31,29c0-1.1-0.9-2-2-2c-1.1,0-2,0.9-2,2c0,1.1,0.9,2,2,2c0,0,0,0,0,0C30.1,31,31,30.1,31,29
			C31,29,31,29,31,29"/>
	</g>
</g>
</svg>
