<?xml version="1.0" encoding="utf-8"?>
<!-- Generator: Adobe Illustrator 26.0.2, SVG Export Plug-In . SVG Version: 6.00 Build 0)  -->
<svg version="1.1" id="Layer_1" xmlns="http://www.w3.org/2000/svg" xmlns:xlink="http://www.w3.org/1999/xlink" x="0px" y="0px"
	 viewBox="0 0 58 58" style="enable-background:new 0 0 58 58;" xml:space="preserve">
<style type="text/css">
	.st0{fill:#333843;}
	.st1{fill:#B5363A;}
</style>
<g>
	<g id="Icon" transform="translate(-0.295)">
		<path id="Path_939" class="st0" d="M55.5,58.4H16.4c-2.3-1-2.9-1.7-2.9-4.3V31.8c-0.3,0-0.6,0-0.8,0C7.3,32,2.5,28.6,0.6,23.6
			c-0.4-1-0.5-2.1-0.8-3.2v-2.3c0-0.2,0.1-0.4,0.1-0.6c0.9-6.4,6.5-11.1,13-10.8c0.2,0,0.4,0,0.6,0c0-1.1,0-2.2,0-3.3
			c0-0.9,0.3-1.7,0.8-2.4c0.6-0.6,1.3-1,2-1.2H46c0.3,0.2,0.6,0.4,0.9,0.7c3.6,3.6,7.2,7.2,10.8,10.8c0.2,0.3,0.5,0.6,0.7,0.9v43.4
			c-0.1,0.3-0.2,0.6-0.3,0.9C57.5,57.4,56.6,58.1,55.5,58.4 M44.6,2.1c-0.1,0-0.2,0-0.3,0c-9.1,0-18.1,0-27.2,0
			c-0.7-0.1-1.2,0.4-1.3,1c0,0.1,0,0.2,0,0.3c0,1,0,2.1,0,3.1c-0.1,0.4,0.2,0.7,0.5,0.8c0,0,0,0,0,0c6.6,2.2,10.1,9.3,8,15.9
			c-1.2,3.8-4.2,6.7-7.9,8c-0.4,0.1-0.6,0.4-0.6,0.8c0,0,0,0,0,0c0,7.5,0,15,0,22.5c0,1.2,0.4,1.6,1.6,1.6h37.1
			c1.2,0,1.6-0.4,1.6-1.6c0-13.4,0-26.9,0-40.3v-0.6h-9.8c-1.3,0-1.6-0.3-1.6-1.6C44.6,8.7,44.6,5.4,44.6,2.1 M11.2,9.1
			c-5.6,0.6-9.7,5.7-9.1,11.3c0.6,5.4,5.3,9.4,10.7,9.1c5.1-0.2,9.2-4.1,9.7-9.1h-9.7c-1.2,0-1.6-0.4-1.6-1.6c0-2.1,0-4.1,0-6.2
			L11.2,9.1 M22.6,18.1c-0.5-5.1-5.1-8.8-9-9v9H22.6z M54.2,11.2L47,4v7.3L54.2,11.2z"/>
		<path id="Path_940" class="st1" d="M47.2,35.6c-1.1-1.6-0.6-3.7,0.9-4.8c1.4-0.9,3.2-0.7,4.4,0.4c1.3,1.4,1.3,3.5,0,4.9
			c-0.8,0.8-1.9,1.1-3,0.9c-0.2,0-0.5,0-0.6,0.2c-2.5,2.7-5.1,5.4-7.6,8.1c0,0.1-0.1,0.1-0.1,0.2c1,1.6,0.6,3.7-1,4.8
			c-1.1,0.7-2.5,0.7-3.6,0.1c-1.4-0.8-2-2.5-1.5-4c0.2-0.3,0.1-0.8-0.2-1c-1-1.2-2-2.4-2.9-3.6c-0.2-0.3-0.4-0.3-0.7-0.2
			c-0.7,0.1-1.3,0.1-2,0c-0.3-0.1-0.6,0-0.8,0.2c-1.2,1.3-2.3,2.6-3.5,3.8c-0.2,0.2-0.3,0.5-0.2,0.8c0.6,1.6-0.1,3.3-1.5,4.1
			c-1.4,0.8-3.2,0.5-4.3-0.8c-1.1-1.3-1.1-3.1,0-4.4c0.8-1.1,2.3-1.5,3.6-1c0.3,0.1,0.6,0,0.8-0.2c1.2-1.3,2.3-2.6,3.5-3.8
			c0.2-0.2,0.3-0.5,0.1-0.8c-0.5-1.4,0-3,1.2-3.9c1.2-0.9,2.9-0.9,4.1,0c1.2,0.9,1.7,2.5,1.2,3.9c-0.1,0.3-0.1,0.6,0.2,0.8
			c1,1.2,2,2.5,3,3.7c0.2,0.2,0.5,0.3,0.7,0.2c0.5-0.1,0.9-0.2,1.4-0.1c0.3,0.1,0.7,0,0.9-0.3c2.4-2.6,4.7-5.1,7.1-7.7
			C46.9,35.9,47,35.8,47.2,35.6 M51.1,33.7c0-0.6-0.5-1.1-1.1-1.1c-0.6,0-1.1,0.5-1.1,1.1c0,0.6,0.5,1.1,1.1,1.1
			C50.6,34.8,51.1,34.3,51.1,33.7 M30.2,37.1c-0.6,0-1.1,0.5-1.2,1.1c0,0.6,0.5,1.1,1.1,1.2c0.6,0,1.1-0.5,1.2-1.1
			C31.3,37.6,30.9,37.1,30.2,37.1 M21.5,48.5c0.6,0,1.1-0.5,1.1-1.1c0-0.6-0.5-1.1-1.1-1.1s-1.1,0.5-1.1,1.1
			C20.4,48,20.9,48.5,21.5,48.5 M39.4,47.4c0-0.6-0.5-1.1-1.1-1.1c-0.6,0-1.1,0.5-1.1,1.1c0,0.6,0.5,1.1,1.1,1.1c0,0,0,0,0,0
			C38.9,48.5,39.4,48,39.4,47.4"/>
		<path id="Path_941" class="st0" d="M41.7,20.4h-8.2c-0.2,0-0.4,0-0.6,0c-0.6-0.1-1.1-0.6-1-1.2c0-0.5,0.5-1,1-1c0.2,0,0.4,0,0.6,0
			H50c0.9,0,1.5,0.4,1.5,1.1s-0.6,1.1-1.5,1.1C47.2,20.4,44.5,20.4,41.7,20.4"/>
		<path id="Path_942" class="st0" d="M41.7,25h-8.2c-0.2,0-0.4,0-0.6,0c-0.6-0.1-1.1-0.6-1-1.2c0-0.5,0.5-1,1-1c0.2,0,0.4,0,0.6,0
			H50c0.9,0,1.5,0.4,1.5,1.1S50.9,25,50,25C47.2,25,44.5,25,41.7,25"/>
		<path id="Path_943" class="st1" d="M35.1,9c-1.9,0-3.9,0-5.8,0c-0.3,0-0.7-0.1-0.9-0.3C28.1,8.4,28,8,28,7.6
			c0.1-0.4,0.4-0.7,0.7-0.9c0.2-0.1,0.5-0.1,0.8-0.1c3.8,0,7.5,0,11.3,0c0.1,0,0.2,0,0.3,0c0.6,0,1.2,0.5,1.2,1.1
			c0,0.6-0.5,1.1-1.2,1.1c0,0,0,0,0,0c-0.9,0-1.8,0-2.7,0L35.1,9"/>
		<path id="Path_944" class="st0" d="M35.2,11.2c1.9,0,3.8,0,5.7,0c0.3,0,0.7,0.1,1,0.3c0.3,0.3,0.4,0.6,0.4,1
			c-0.1,0.4-0.4,0.7-0.7,0.9c-0.2,0.1-0.5,0.1-0.8,0.1c-3.8,0-7.5,0-11.3,0c-0.1,0-0.2,0-0.3,0c-0.6,0-1.2-0.5-1.2-1.1
			c0-0.6,0.5-1.1,1.2-1.1c0,0,0,0,0,0c0.8,0,1.7,0,2.5,0L35.2,11.2"/>
		<path id="Path_945" class="st0" d="M28.4,18.1c0.6,0,1.1,0.5,1.1,1.2c0,0.6-0.5,1.1-1.2,1.1c-0.6,0-1.1-0.5-1.1-1.2
			C27.3,18.6,27.8,18.1,28.4,18.1"/>
		<path id="Path_946" class="st0" d="M28.4,25c-0.6,0-1.1-0.5-1.1-1.1c0-0.6,0.5-1.1,1.1-1.1c0.6,0,1.1,0.5,1.1,1.1c0,0,0,0,0,0
			C29.5,24.5,29,24.9,28.4,25"/>
		<path id="Path_947" class="st1" d="M12,27.2c-4.2-0.2-7.5-3.6-7.7-7.8c-0.1-0.6,0.3-1.2,0.9-1.3C6,18,6.6,18.5,6.7,19.4
			c0,1.2,0.5,2.4,1.3,3.4c1,1.3,2.6,2.1,4.2,2.1c0.5,0,1,0.2,1.3,0.7C13.8,26.5,13.1,27.3,12,27.2"/>
	</g>
</g>
</svg>
