<?xml version="1.0" encoding="utf-8"?>
<!-- Generator: Adobe Illustrator 26.0.2, SVG Export Plug-In . SVG Version: 6.00 Build 0)  -->
<svg version="1.1" id="Layer_1" xmlns="http://www.w3.org/2000/svg" xmlns:xlink="http://www.w3.org/1999/xlink" x="0px" y="0px"
	 viewBox="0 0 64.1 58.4" style="enable-background:new 0 0 64.1 58.4;" xml:space="preserve">
<style type="text/css">
	.st0{fill:#333843;}
	.st1{fill:#B5363A;}
</style>
<g>
	<g id="Icon">
		<path id="Path_936" class="st0" d="M0,26.1c0.3-0.8,1.2-1.3,2.1-1.1c0.4,0,0.7,0,1.1,0c0.6-2.1,1-4.1,1.7-6
			c1.7-4.6,4.5-8.7,8.3-11.9c0.6-0.6,1.2-0.6,1.6-0.1c0.4,0.5,0.3,1-0.3,1.5C9.3,12.8,6,18.9,5.1,25.6c-0.1,0.9-0.4,1.2-1.3,1.2
			c-0.5,0-1,0-1.6,0L6,31.4l3.8-4.6c-0.6,0-1.1,0-1.6,0c-1,0-1.4-0.4-1.2-1.4c1-7.6,5.5-14.3,12.2-18.1c12-7.1,27.5-3.2,34.6,8.7
			c0.5,0.9,1,1.8,1.4,2.7c0,0.1,0.1,0.2,0.1,0.3c0.3,0.6,0.8,0.8,1.3,0.6c0.5-0.2,0.7-0.8,0.5-1.2c0,0,0-0.1-0.1-0.1
			c-0.7-1.5-1.6-3-2.5-4.5C50.3,7.4,43.6,3.2,36.1,2.2c-6-0.9-12.2,0.2-17.5,3.3C17.7,6,17.1,6,16.8,5.4s-0.1-1,0.8-1.5
			c5-2.9,10.8-4.2,16.6-3.7C45.6,1.2,53.7,7,58.7,17.3c0.6,1.1,0.5,2.6-0.5,3.5c-0.1,0.2-0.1,0.4-0.1,0.6c0.2,1.2,0.5,2.3,0.8,3.5
			c0,0.2,0.1,0.3,0.2,0.4c1.5,1.8,3.1,3.7,4.6,5.5c0.5,0.5,0.6,1.2,0.3,1.7c-0.3,0.6-0.9,1-1.5,0.9c-0.5,0-1.1,0-1.5,0
			c-0.5,1.8-0.8,3.6-1.4,5.3c-3.9,10.4-11.2,17-22.2,19.1c-12.8,2.5-25.7-4-31.4-15.8c-0.2-0.5-0.4-0.9-0.7-1.4
			c-0.5-1.1-0.3-2.3,0.6-3.2C6,37.3,6.1,37,6,36.7c-0.2-1-0.4-2-0.7-3.1c0-0.2-0.1-0.4-0.3-0.5c-1.6-1.9-3.2-3.9-4.8-5.8
			c-0.1-0.1-0.2-0.3-0.3-0.4V26.1 M55.1,33.5c-0.4,0-0.8,0-1.1,0c-0.7,0.1-1.4-0.3-1.7-0.9c-0.3-0.7-0.1-1.4,0.4-1.9
			c1.4-1.6,2.7-3.3,4.1-5c0.2-0.2,0.3-0.5,0.2-0.8c-0.2-1-0.5-2-0.7-3c0-0.2-0.2-0.3-0.3-0.4c-1.2-0.2-2.1-1.1-2.5-2.2
			C49.2,10,39.3,4.4,29.1,5.8c-7.2,0.9-13.6,5.1-17.3,11.5c-1.4,2.3-2.4,4.9-2.8,7.6c0.5,0,0.9,0,1.3,0c0.7-0.1,1.3,0.3,1.6,0.9
			c0.3,0.6,0.2,1.3-0.3,1.8c-0.9,1.1-1.8,2.1-2.6,3.2c-0.6,0.8-1.5,1.5-1.7,2.4c-0.2,0.9,0.4,2,0.6,3c0,0.1,0,0.2,0.1,0.2
			c0.1,0.1,0.2,0.3,0.3,0.3c1,0.2,1.9,1,2.3,2c0.9,1.7,1.8,3.3,2.9,4.9c0.8,1,1.6,2,2.5,2.8c0.5,0.5,0.5,1,0.1,1.4
			c-0.4,0.4-1,0.4-1.4,0c0,0,0,0-0.1-0.1c-0.1-0.1-0.1-0.1-0.2-0.2c-2.4-2.3-4.4-5.2-5.8-8.3c-0.3-0.7-0.8-0.9-1.3-0.7
			C7,38.9,6.8,39.5,7.1,40c0,0,0,0,0,0.1C13,53.9,29,60.2,42.8,54.3c8.9-3.8,15.1-12.1,16.2-21.7c0.1-0.7,0.4-1,1.2-1
			c0.5,0,1.1,0,1.7,0L58.1,27l-3.7,4.5c0.1,0.1,0.1,0.1,0.2,0.1c0.5,0,0.9,0,1.4,0c0.9,0,1.3,0.4,1.2,1.3c-0.1,0.8-0.3,1.7-0.5,2.5
			C53.2,49,39.4,57.3,25.9,53.9c-2.4-0.6-4.8-1.6-6.9-2.9c-0.8-0.5-1.1-1-0.7-1.5c0.3-0.6,0.9-0.6,1.7-0.1c3.2,1.9,6.8,3.1,10.5,3.3
			C42.3,53.5,53,45.2,55.1,33.5"/>
		<path id="Path_937" class="st1" d="M50.9,29.3c0,10.4-8.4,18.8-18.8,18.8s-18.8-8.4-18.8-18.8c0-8.9,6.3-16.6,15.1-18.4
			c4-0.8,8.3-0.3,11.9,1.5c0.7,0.4,1,0.8,0.7,1.4c-0.3,0.6-0.8,0.7-1.5,0.3c-4.8-2.4-10.5-2.3-15.3,0.2c-8.3,4.3-11.4,14.6-7.1,22.8
			S31.7,48.5,40,44.2c4.7-2.5,8-7,8.8-12.2c1-5.5-0.9-11-4.9-14.8c-0.2-0.2-0.3-0.3-0.5-0.5c-0.4-0.3-0.4-0.9-0.1-1.3
			c0.4-0.4,1-0.4,1.4,0c0,0,0,0,0,0c1.4,1.3,2.7,2.8,3.7,4.5C50,22.7,50.9,25.9,50.9,29.3"/>
		<path id="Path_938" class="st0" d="M34.8,17.6c0.9,0.5,1.7,0.9,2.5,1.5c1.2,1,1.4,2.7,0.5,3.9c-0.9,1.1-2.5,1.4-3.7,0.6
			c-0.6-0.5-1.4-0.7-2.2-0.6c-0.5,0-0.9,0.4-1,0.8c-0.2,0.3-0.1,0.7,0.3,0.9c0,0,0.1,0,0.1,0.1c1.3,0.6,2.7,1.2,4,1.7
			c2.2,0.8,3.9,2.6,4.4,4.9c0.8,3.5-1,7.1-4.2,8.7c-0.4,0.1-0.6,0.5-0.5,0.8c0,0.5,0,1-0.1,1.4c-0.3,1.4-1.7,2.3-3.1,2
			c-1.4-0.2-2.4-1.3-2.4-2.7c0-0.3,0-0.7,0-0.9c-1.2-0.6-2.4-1.1-3.4-1.8c-1-0.6-1.5-1.8-1.2-2.9c0.3-1.5,1.8-2.5,3.3-2.2
			c0.3,0.1,0.7,0.2,1,0.4c0.9,0.6,2,0.9,3.1,0.8c0.8,0,1.6-0.5,1.9-1.3c0.4-0.7,0.2-1.6-0.5-2.1c-0.1-0.1-0.3-0.2-0.4-0.2
			c-0.2-0.1-0.3-0.1-0.5-0.2c-0.5-0.1-0.8-0.7-0.6-1.2c0,0,0,0,0,0c0.2-0.5,0.7-0.7,1.2-0.6c1.6,0.3,2.8,1.7,2.8,3.3
			c0,1.9-1.3,3.5-3.1,3.9c-1.6,0.4-3.3,0.1-4.8-0.8c-0.1-0.1-0.2-0.1-0.3-0.2c-0.4-0.3-1-0.2-1.3,0.3c-0.3,0.4-0.2,1,0.3,1.3
			c0,0,0,0,0.1,0c0.9,0.7,2,1.1,3.1,1.3c0.9,0.1,1.1,0.4,1.1,1.3c0,0.4,0,0.9,0,1.3c0,0.7,0.4,1.1,0.9,1.1s0.9-0.4,1-1.1
			c0-0.5,0-0.9,0-1.4c0-1,0.1-1.1,1-1.5c2.8-1,4.5-4,3.7-6.9c-0.5-1.6-1.7-2.9-3.3-3.5c-1.5-0.6-3-1.3-4.5-2
			c-0.8-0.4-1.2-1.2-1.2-2.1c0-1.5,1.1-2.7,2.5-3c1.3-0.3,2.6,0,3.6,0.7c0.4,0.4,1,0.4,1.4,0c0,0,0.1-0.1,0.1-0.1
			c0.3-0.4,0.2-1-0.2-1.3c-0.1,0-0.1-0.1-0.2-0.1c-0.7-0.4-1.4-0.7-2.1-1c-0.6-0.1-0.9-0.6-0.9-1.2c0-0.5,0-0.9,0-1.4
			c0-0.5-0.3-1-0.8-1c0,0-0.1,0-0.1,0c-0.5,0-0.9,0.4-0.9,1c0,0,0,0,0,0.1c0,0.4,0,0.9,0,1.3c0,0.9-0.1,1.1-1,1.4
			c-2.4,0.9-3.7,3.5-3.1,5.9c0.2,0.8,0.7,1.6,1.4,2.1c0.3,0.2,0.6,0.4,0.8,0.6c0.4,0.3,0.5,0.8,0.2,1.3c0,0,0,0,0,0
			c-0.2,0.4-0.8,0.6-1.2,0.3c0,0,0,0,0,0c-1.8-0.9-3.1-2.6-3.3-4.7c-0.4-2.9,1.1-5.7,3.7-7c0.2-0.1,0.3-0.4,0.4-0.6
			c0.1-0.4,0-0.8,0.1-1.2c0.2-1.4,1.5-2.4,3-2.3c1.4,0.1,2.6,1.3,2.6,2.7C34.8,17.1,34.8,17.4,34.8,17.6"/>
	</g>
</g>
</svg>
