<?xml version="1.0" encoding="utf-8"?>
<!-- Generator: Adobe Illustrator 26.0.2, SVG Export Plug-In . SVG Version: 6.00 Build 0)  -->
<svg version="1.1" id="Layer_1" xmlns="http://www.w3.org/2000/svg" xmlns:xlink="http://www.w3.org/1999/xlink" x="0px" y="0px"
	 viewBox="0 0 49.5 49.5" style="enable-background:new 0 0 49.5 49.5;" xml:space="preserve">
<style type="text/css">
	.st0{fill:#333843;}
</style>
<g>
	<g id="Icon">
		<path id="Path_1023" class="st0" d="M34.4,27.1c-0.4-0.7-1.2-0.9-1.9-0.5c-0.1,0-0.2,0.1-0.2,0.2c-0.9,0.7-1.8,1.5-2.7,2.3
			c-0.3,0.3-0.8,0.4-1.2,0.1C28,28.9,28,28.4,28.2,28c0-0.1,0.1-0.1,0.2-0.2c1-0.9,2-1.7,3.1-2.5c1.3-1,2.8-0.7,4.2,0.7
			c0.3-0.3,0.7-0.6,1-0.8c1.7-1.5,3.5-1.3,4.9,0.5c0.9-0.8,1.9-1.6,2.8-2.4c1.3-1.1,3.2-0.9,4.3,0.4c0.2,0.3,0.4,0.6,0.6,1
			c0.3,0.9,0.2,2-0.4,2.7c-0.2,0.2-0.3,0.5-0.5,0.7c0.1,0.1,0.1,0.2,0.2,0.2c1.1,1.1,1.1,3,0,4.1c-2.7,2.7-5.3,5.4-8.1,8
			c-1.8,1.7-4.1,2.8-6.6,3c-1,0.1-2,0.3-3,0.4c-0.1,0-0.2,0-0.4,0c-0.5,0.1-0.9-0.2-0.9-0.7c0,0,0,0,0,0c0-0.5,0.3-0.9,0.8-0.9
			c0,0,0,0,0,0c0.8-0.1,1.6-0.2,2.5-0.3c2.9-0.2,5.6-1.5,7.6-3.7c2.1-2.2,4.4-4.4,6.5-6.6c0.1-0.1,0.2-0.2,0.4-0.4
			c0.5-0.5,0.6-1.3,0.1-1.9c-0.5-0.5-1.3-0.5-1.8-0.1c-0.7,0.6-1.5,1.2-2.2,1.8c-1.9,1.6-3.8,3.2-5.8,4.8c-0.3,0.2-0.7,0.4-1.1,0.4
			c-5,0-10,0-15.1,0c-0.1,0-0.3,0-0.4,0c-0.4-0.1-0.8-0.5-0.7-0.9c0.1-0.4,0.3-0.6,0.7-0.7c0.2,0,0.3,0,0.5,0c2.1,0,4.3,0,6.4,0
			c0.9,0,1.5-0.5,1.5-1.2c0-0.7-0.7-1.3-1.4-1.3c0,0-0.1,0-0.1,0c-2,0-4.1,0-6.1,0c-1.7,0-3.4,0.4-4.9,1.1
			c-4.2,1.8-7.9,4.6-10.9,8.1c-1.7,2.1-3.2,4.5-4.2,7c-0.1,0.2-0.2,0.5-0.3,0.7c-0.2,0.4-0.6,0.6-1,0.4c0,0,0,0,0,0
			c-0.4-0.2-0.6-0.6-0.5-1c0,0,0,0,0-0.1c0.6-1.2,1.1-2.5,1.7-3.7c2.8-5,7-9.1,12.1-11.7c1.9-1.1,4-1.9,6.2-2.3
			c0.6-0.1,1.3-0.1,1.9-0.1c1.9,0,3.9,0,5.8,0c0.6,0.1,1.1,0.2,1.7,0.3c0.1,0,0.3,0.1,0.4,0C31.4,29.6,32.9,28.4,34.4,27.1
			 M30.9,34.7c1.8,0,3.5,0,5.3,0c0.3,0,0.6-0.1,0.8-0.3c2.5-2,4.9-4.1,7.4-6.1c0.6-0.5,1.4-0.8,2.2-0.8c0.1,0,0.3,0,0.4-0.1
			c0.3-0.3,0.6-0.7,0.8-1.1c0.4-0.7,0.1-1.5-0.6-1.9c-0.1-0.1-0.2-0.1-0.4-0.1c-0.5-0.1-1,0-1.4,0.4c-1.8,1.5-3.5,3-5.3,4.5
			c-1.6,1.3-3.2,2.7-4.8,4c-0.2,0.3-0.6,0.4-1,0.3c-0.6-0.2-0.7-1-0.1-1.5c1.9-1.6,3.7-3.2,5.6-4.7c0.2-0.2,0.4-0.3,0.5-0.5
			c-0.3-0.7-1.1-1.1-1.8-0.8c-0.2,0.1-0.3,0.1-0.4,0.3c-2.4,2-4.7,4-7,6c-0.1,0.1-0.2,0.2-0.1,0.3C31.2,33.1,31.2,34,30.9,34.7"/>
		<path id="Path_1024" class="st0" d="M20.6,27.2c0-1.6,0-3,0-4.4c0-1.1,0.2-1.3,1.3-1.3c3.9,0,7.8,0,11.7,0
			c1.4,0.1,2.6-0.9,2.7-2.2c0-0.2,0-0.3,0-0.5c0-1.8,0-3.5,0-5.3c0-0.7,0.3-1.1,0.8-1.1s0.8,0.4,0.8,1.1c0,1.8,0,3.6,0,5.4
			c0.1,2.3-1.7,4.2-4,4.2c-0.1,0-0.2,0-0.2,0c-3.6,0-7.2,0-10.8,0h-0.6v1.1c0,1.5,0,3,0,4.5c0.1,0.4-0.1,0.8-0.5,0.9
			c-0.3,0.1-0.7,0.1-1-0.2c-2.5-2-5-4-7.5-6c-0.3-0.2-0.6-0.3-0.9-0.3c-1.2,0-2.3,0-3.5,0c-2.2,0-4-1.8-4-4c0-3.3,0-6.6,0-9.9
			c0-0.6,0.3-1,0.8-1c0.5,0,0.8,0.4,0.8,0.9c0,0.1,0,0.2,0,0.4c0,3,0,6.1,0,9.1c-0.2,1.4,0.8,2.6,2.2,2.8c0.2,0,0.4,0,0.7,0
			c1.2,0,2.3,0,3.5,0c0.4,0,0.7,0.1,1,0.3C16.1,23.6,18.3,25.3,20.6,27.2"/>
		<path id="Path_1025" class="st0" d="M10,11.2C8.4,9,8.9,5.9,11.1,4.3c2.2-1.6,5.3-1.1,6.9,1.1c1.3,1.8,1.3,4.1,0,5.9l0.2,0.3
			c1,0.9,1,2.5,0,3.4c-0.2,0.2-0.4,0.3-0.6,0.5c-0.2,0.1-0.4,0.3-0.4,0.5C17.2,17.6,15.8,19,14,19c-1.7,0-3.2-1.3-3.3-3.1
			c0-0.2-0.1-0.3-0.2-0.4c-1.2-0.6-1.8-2-1.2-3.3C9.4,11.8,9.7,11.5,10,11.2C10,11.3,10,11.2,10,11.2 M13.2,10.7
			c-0.1-0.6,0.2-1.2-0.4-1.7c-0.5-0.4-0.6-0.9-0.2-1.3c0.4-0.4,0.8-0.4,1.3,0.1c0,0,0.1,0,0.1,0c0,0,0.1-0.1,0.1-0.1
			c0.5-0.4,0.9-0.4,1.2,0c0.3,0.3,0.3,0.8,0,1.1c0,0-0.1,0.1-0.1,0.1c-0.6,0.5-0.5,1.1-0.5,1.8c1.4,0.2,1.8-0.1,2.2-1.3
			c0.6-1.7-0.3-3.6-2-4.2c-0.8-0.3-1.6-0.3-2.4,0.1c-1.2,0.5-2,1.6-2,3c0,0.9,0.3,1.7,0.9,2.3C12.1,10.9,12.6,10.7,13.2,10.7 M14,14
			c0.8,0,1.6,0,2.4,0c0.5,0.1,0.9-0.3,0.9-0.7c0,0,0,0,0-0.1c0-0.5-0.4-0.8-1-0.8c-1.6,0-3.1,0-4.7,0c-0.5-0.1-0.9,0.3-0.9,0.7
			c0,0,0,0.1,0,0.1c0,0.5,0.4,0.8,1,0.8C12.5,14,13.2,14,14,14 M12.4,15.7c0,0.9,0.7,1.6,1.6,1.6c0.9,0,1.6-0.7,1.6-1.6H12.4z"/>
		<path id="Path_1026" class="st0" d="M21.5,0c4,0,8.1,0,12.1,0c2.3-0.1,4.3,1.6,4.4,3.9c0,0.2,0,0.4,0,0.5c0,1.8,0,3.6,0,5.4
			c0,0.6-0.3,0.9-0.7,1c-0.5,0.1-0.9-0.3-0.9-1c0-1.8,0-3.5,0-5.3c0.2-1.4-0.8-2.6-2.2-2.8c-0.2,0-0.4,0-0.6,0H9.4
			C8,1.5,6.8,2.5,6.6,3.8c0,0.2,0,0.4,0,0.6c0,0.4,0,0.9,0,1.3c0,0.5-0.3,0.9-0.8,0.9c0,0,0,0,0,0C5.3,6.6,5,6.3,5,5.8
			c0,0,0-0.1,0-0.1c0-0.8,0-1.6,0.1-2.4c0.3-2,2-3.4,4-3.4C13.2,0,17.3,0,21.5,0"/>
		<path id="Path_1027" class="st0" d="M28,43.5c0,0.4-0.4,0.7-0.8,0.7c-1.5,0.2-2.9,0.4-4.4,0.6c-2.2,0.1-4.1,1.5-4.7,3.5
			c-0.1,0.2-0.2,0.4-0.3,0.6c-0.2,0.4-0.6,0.6-1,0.4c-0.4-0.1-0.6-0.6-0.5-1c0,0,0,0,0,0c0.8-2.4,2.3-4.6,5.5-5.1
			c1.7-0.3,3.4-0.5,5.2-0.7c0.4-0.1,0.9,0.2,1,0.6C28,43.4,28,43.5,28,43.5"/>
		<path id="Path_1028" class="st0" d="M27.3,9.1c1.8,0,3.7,0,5.5,0c0.7,0,1,0.3,1,0.8s-0.4,0.8-1,0.8c-3.7,0-7.4,0-11.1,0
			c-0.7,0-1-0.3-1-0.8c0-0.5,0.4-0.8,1.1-0.8C23.6,9.1,25.4,9.1,27.3,9.1"/>
		<path id="Path_1029" class="st0" d="M26.4,14c-1.6,0-3.2,0-4.7,0c-0.7,0-1-0.3-1-0.8s0.4-0.8,1-0.8c3.2,0,6.3,0,9.5,0
			c0.7,0,1,0.3,1,0.8s-0.4,0.8-1,0.8C29.6,14,28,14,26.4,14"/>
		<path id="Path_1030" class="st0" d="M28.5,5.8c1.4,0,2.9,0,4.3,0c0.7,0,1,0.3,1,0.8s-0.4,0.8-1,0.8c-2.9,0-5.8,0-8.7,0
			c-0.7,0-1-0.3-1-0.8s0.4-0.8,1-0.8C25.6,5.8,27.1,5.8,28.5,5.8"/>
		<path id="Path_1031" class="st0" d="M24.7,17.3c-1,0-2.1,0-3.1,0c-0.6,0-1-0.3-1-0.8c0-0.5,0.4-0.8,1-0.8c2.1,0,4.2,0,6.2,0
			c0.6,0,1,0.3,1,0.8c0,0.5-0.4,0.8-1,0.8C26.8,17.3,25.8,17.3,24.7,17.3"/>
	</g>
</g>
</svg>
