<?xml version="1.0" encoding="utf-8"?>
<!-- Generator: Adobe Illustrator 26.0.2, SVG Export Plug-In . SVG Version: 6.00 Build 0)  -->
<svg version="1.1" id="Layer_1" xmlns="http://www.w3.org/2000/svg" xmlns:xlink="http://www.w3.org/1999/xlink" x="0px" y="0px"
	 viewBox="0 0 57.9 59" style="enable-background:new 0 0 57.9 59;" xml:space="preserve">
<style type="text/css">
	.st0{fill:#333843;}
	.st1{fill:#B5363A;}
</style>
<g>
	<g id="Icon">
		<path id="Path_903" class="st0" d="M45.9,0c0.8,0.3,1.6,0.6,2.4,1c1.4,1,2.2,2.6,2.1,4.3c0,1.5,0,3,0,4.6c0.6,0,1.1,0,1.7,0
			c1,0,2,0,3.1,0c1.5,0,2.8,1.3,2.8,2.8c0,2.5,0,4.9,0,7.4c0,0.7-0.3,1.1-0.8,1.1s-0.9-0.4-0.9-1.1c0-2.3,0-4.6,0-6.9
			c0-1.3-0.3-1.6-1.6-1.6h-30c-1.3,0-1.6,0.4-1.6,1.7c0,14.1,0,28.2,0,42.2c0,1.3,0.4,1.7,1.6,1.7h30c1.3,0,1.6-0.4,1.6-1.6
			c0-10.4,0-20.7,0-31.1c0-0.2,0-0.5,0.1-0.7c0.1-0.4,0.5-0.7,0.9-0.7c0.4,0,0.8,0.3,0.8,0.8c0,0.2,0,0.3,0,0.5
			c0,10.4,0,20.9,0,31.3c0.2,1.6-0.9,3.1-2.6,3.3c-0.2,0-0.5,0-0.7,0c-10.1,0-20.1,0-30.2,0c-1.6,0.2-3.1-1-3.3-2.6
			c0-0.2,0-0.4,0-0.7c0-1.9,0-3.8,0-5.8c0-0.1,0-0.1-0.1-0.2h-2.5c-0.6,0-1.1,0-1.7,0c-0.7,0-1.1-0.4-1.1-0.9c0-0.5,0.4-0.8,1-0.8
			c1.4,0,2.8,0,4.2,0V37.4h-2.5c-0.6,0-1.1,0-1.7,0c-0.7,0-1.1-0.3-1.1-0.8c0-0.5,0.4-0.9,1.1-0.9c1.2,0,2.4,0,3.6,0h0.6V25.2h-3.2
			c-0.4,0-0.8,0-1.2,0c-0.5,0.1-0.9-0.3-1-0.8c0,0,0,0,0,0c0-0.5,0.4-0.9,1-0.9c1.2,0,2.3,0,3.5,0h0.8v-8.3h-3.6c-0.2,0-0.5,0-0.7,0
			c-0.5,0-0.9-0.3-0.9-0.8c0,0,0,0,0-0.1c0-0.5,0.4-0.8,0.9-0.8c0,0,0,0,0,0c1.2,0,2.5,0,3.7,0h0.7c0-0.3,0.1-0.7,0.1-1
			c0.2-1.3,1.3-2.4,2.6-2.5c0.3,0,0.6,0,0.9,0h24V7.4c0-0.7,0-1.3,0-2c0.1-1.9-1.3-3.5-3.2-3.6C43.6,1.6,42,3,41.9,4.9
			c0,0.1,0,0.3,0,0.4c0,0.7,0,1.3,0,2c0,0.7-0.3,1-0.8,1c-0.5,0-0.9-0.4-0.9-0.8c0-0.1,0-0.1,0-0.2c0-1.2,0.1-2.4,0.2-3.6
			c0.2-0.7,0.5-1.4,0.9-2h-0.5c-11.5,0-23.1,0-34.6,0C3.9,1.5,1.9,3.2,1.7,5.5c0,0.2,0,0.5,0,0.7c0,15.8,0,31.5,0,47.3
			c-0.2,1.9,1.2,3.5,3,3.7c0.2,0,0.5,0,0.7,0c4.3,0,8.6,0,13,0c0.2,0,0.5,0,0.7,0.1c0.4,0,0.7,0.4,0.6,0.8c0,0,0,0,0,0.1
			c-0.1,0.3-0.4,0.6-0.6,0.8c-0.1,0.1-0.4,0.1-0.6,0.1c-4.4,0-8.8,0-13.1,0c-2.1,0.2-4-1-4.9-2.9C0.2,55.2,0,54.3,0,53.4
			C0,40,0,26.5,0,13.1c0-2.3,0-4.6,0-7c-0.1-3,2-5.5,4.9-6C4.9,0.1,5,0,5.1,0H45.9z"/>
		<path id="Path_904" class="st0" d="M39.3,23.6H26.9c-1.8,0-2.5-0.7-2.5-2.6c0-1.9,0-3.8,0-5.6c-0.2-1.1,0.7-2.2,1.8-2.4
			c0.2,0,0.4,0,0.5,0c8.5,0,16.9,0,25.4,0c1.2-0.1,2.2,0.7,2.3,1.8c0,0.2,0,0.4,0,0.5c0,2,0,3.9,0,5.9c0.1,1.1-0.7,2.2-1.8,2.3
			c-0.2,0-0.3,0-0.5,0C47.8,23.7,43.6,23.7,39.3,23.6 M39.4,21.9h12.5c0.8,0,0.8,0,0.8-0.8c0-1.9,0-3.7,0-5.6c0-0.5-0.2-0.7-0.7-0.7
			c-8.4,0-16.8,0-25.2,0c-0.5,0-0.7,0.2-0.7,0.7c0,1.9,0,3.7,0,5.6c0,0.8,0,0.8,0.8,0.8H39.4"/>
		<path id="Path_905" class="st1" d="M48.1,48.3c0-1.6,0-3.3,0-5c-0.1-1,0.6-1.8,1.6-1.9c0.1,0,0.2,0,0.4,0c0.8,0,1.7,0,2.5,0
			c1-0.1,1.8,0.7,1.9,1.6c0,0.1,0,0.2,0,0.2c0,3.4,0,6.7,0,10.1c0.1,1-0.7,1.8-1.6,1.9c-0.1,0-0.1,0-0.2,0c-0.9,0-1.8,0-2.8,0
			c-1,0-1.8-0.7-1.8-1.7c0-0.1,0-0.1,0-0.2C48.1,51.6,48.1,49.9,48.1,48.3 M49.9,53.4h2.8V43.1h-2.8V53.4z"/>
		<path id="Path_906" class="st0" d="M8.5,52.8c-0.7,0-1.4,0-2.1,0c-0.9,0-1.7-0.6-1.7-1.6c0,0,0,0,0-0.1c0-1.5,0-3,0-4.5
			c0-0.9,0.7-1.6,1.6-1.7c0,0,0.1,0,0.1,0c1.5,0,3,0,4.5,0c0.9,0,1.7,0.7,1.7,1.6c0,0,0,0.1,0,0.1c0,1.4,0,2.8,0,4.3
			c0,0.9-0.7,1.7-1.6,1.7c0,0-0.1,0-0.1,0C10,52.8,9.3,52.8,8.5,52.8 M10.7,46.8H6.4V51h4.3L10.7,46.8z"/>
		<path id="Path_907" class="st0" d="M8.6,32.6c0.7,0,1.4,0,2.1,0c0.9-0.1,1.7,0.7,1.8,1.6c0,0.1,0,0.1,0,0.2c0,1.4,0,2.8,0,4.3
			c0.1,0.9-0.7,1.7-1.6,1.8c0,0-0.1,0-0.1,0c-1.5,0-2.9,0-4.4,0c-0.9,0-1.7-0.7-1.7-1.6c0,0,0-0.1,0-0.1c0-1.4,0-2.9,0-4.3
			c0-0.9,0.7-1.7,1.6-1.8c0.1,0,0.1,0,0.2,0C7.2,32.6,7.9,32.6,8.6,32.6 M10.7,34.4H6.4v4.3h4.3L10.7,34.4z"/>
		<path id="Path_908" class="st0" d="M8.6,20.5c0.7,0,1.5,0,2.2,0c0.9,0,1.7,0.7,1.7,1.6c0,0,0,0,0,0.1c0,1.5,0,3,0,4.4
			c0,0.9-0.7,1.6-1.6,1.7c0,0,0,0-0.1,0c-1.5,0-3,0-4.5,0c-0.9,0-1.7-0.7-1.7-1.6c0,0,0-0.1,0-0.1c0-1.5,0-2.9,0-4.4
			c0-0.9,0.7-1.7,1.6-1.7c0,0,0.1,0,0.1,0C7.1,20.5,7.9,20.5,8.6,20.5L8.6,20.5 M10.7,22.3H6.4v4.2h4.3L10.7,22.3z"/>
		<path id="Path_909" class="st0" d="M46.5,44.6c0,0.5,0,1,0,1.4c0,0.8-0.7,1.6-1.5,1.6c-1.1,0.1-2.2,0.1-3.3,0
			c-0.9,0-1.6-0.8-1.5-1.6c0-1,0-1.9,0-2.9c0-1,0.8-1.7,1.7-1.7c0,0,0,0,0.1,0c0.9,0,1.8,0,2.8,0c0.9,0,1.7,0.7,1.8,1.7
			c0,0,0,0,0,0.1C46.5,43.6,46.5,44.1,46.5,44.6L46.5,44.6 M41.9,45.9h2.8v-2.7h-2.8V45.9z"/>
		<path id="Path_910" class="st0" d="M30.7,44.5c0,0.5,0,0.9,0,1.4c0,0.9-0.7,1.7-1.6,1.7c0,0,0,0,0,0c-1,0-2,0-3,0
			c-0.9,0-1.6-0.8-1.6-1.7c0-1,0-1.9,0-2.9c0-0.9,0.8-1.7,1.7-1.7c0,0,0,0,0,0c0.9,0,1.9,0,2.8,0c0.9,0,1.7,0.7,1.7,1.7
			c0,0,0,0,0,0.1C30.7,43.6,30.7,44.1,30.7,44.5 M26.1,45.9h2.8v-2.8h-2.8V45.9z"/>
		<path id="Path_911" class="st0" d="M32.3,44.5c0-0.5,0-0.9,0-1.4c0-0.9,0.7-1.7,1.7-1.7c1,0,2,0,3,0c0.9,0,1.7,0.8,1.7,1.7
			c0,0.9,0,1.9,0,2.8c0,0.9-0.7,1.7-1.7,1.7c0,0,0,0,0,0c-1,0-1.9,0-2.9,0c-0.9,0-1.7-0.7-1.7-1.7c0,0,0-0.1,0-0.1
			C32.3,45.4,32.3,44.9,32.3,44.5L32.3,44.5 M36.8,43.2H34v2.7h2.8V43.2z"/>
		<path id="Path_912" class="st0" d="M30.7,28.5c0,0.4,0,0.8,0,1.3c0.1,0.9-0.6,1.8-1.6,1.8c0,0-0.1,0-0.1,0c-1,0.1-2,0.1-3,0
			c-0.9,0-1.7-0.8-1.7-1.7c0,0,0,0,0,0c0-0.9,0-1.8,0-2.7c0-1,0.7-1.8,1.7-1.8c0,0,0,0,0.1,0c1,0,1.9,0,2.9,0c1,0,1.7,0.8,1.7,1.7
			c0,0,0,0.1,0,0.1C30.7,27.7,30.7,28.1,30.7,28.5 M26.1,29.9h2.8v-2.8h-2.8V29.9z"/>
		<path id="Path_913" class="st0" d="M51.2,39.7c-0.5,0-1,0-1.4,0c-0.9,0-1.7-0.8-1.7-1.7c0-1,0-1.9,0-2.9c0-0.9,0.7-1.7,1.6-1.7
			c1,0,2,0,3,0c0.9,0,1.7,0.7,1.7,1.7c0,0,0,0,0,0c0,1,0,1.9,0,2.9c0,0.9-0.8,1.7-1.8,1.7c0,0,0,0,0,0
			C52.2,39.7,51.7,39.7,51.2,39.7L51.2,39.7z M52.7,35.2h-2.8v2.7h2.8V35.2z"/>
		<path id="Path_914" class="st1" d="M30.7,52.1c0,0.4,0,0.8,0,1.3c0.1,0.9-0.6,1.8-1.6,1.8c0,0-0.1,0-0.1,0c-1,0.1-2,0.1-3,0
			c-0.9,0-1.7-0.8-1.7-1.8c0,0,0,0,0,0c0-0.9,0-1.8,0-2.7c0-1,0.7-1.7,1.7-1.8c0,0,0,0,0.1,0c1,0,1.9,0,2.9,0c0.9,0,1.7,0.8,1.7,1.7
			c0,0,0,0,0,0.1C30.7,51.2,30.7,51.6,30.7,52.1 M26.1,53.4h2.8v-2.8h-2.8V53.4z"/>
		<path id="Path_915" class="st0" d="M48.1,28.5c0-0.5,0-0.9,0-1.4c0-0.9,0.7-1.7,1.7-1.8c0,0,0,0,0,0c1,0,2,0,2.9,0
			c1,0,1.7,0.8,1.7,1.7c0,0,0,0,0,0.1c0,0.9,0,1.8,0,2.6c0.1,1-0.7,1.8-1.6,1.8c0,0-0.1,0-0.1,0c-0.9,0-1.9,0-2.8,0
			c-1,0-1.8-0.7-1.8-1.7c0-0.1,0-0.1,0-0.2C48.1,29.4,48.1,29,48.1,28.5 M49.8,29.9h2.8v-2.8h-2.8V29.9z"/>
		<path id="Path_916" class="st0" d="M35.4,48.9c0.4,0,0.9,0,1.3,0c1,0,1.8,0.7,1.8,1.7c0,0,0,0.1,0,0.1c0,0.9,0,1.8,0,2.7
			c0,1-0.7,1.8-1.7,1.8c0,0-0.1,0-0.1,0c-0.9,0-1.8,0-2.7,0c-1,0.1-1.8-0.7-1.8-1.6c0-0.1,0-0.1,0-0.2c0-0.9,0-1.7,0-2.6
			c-0.1-1,0.7-1.8,1.6-1.8c0,0,0.1,0,0.1,0C34.5,48.9,35,48.9,35.4,48.9 M34,53.4h2.8v-2.8H34L34,53.4z"/>
		<path id="Path_917" class="st0" d="M35.4,25.4c0.4,0,0.9,0,1.3,0c1-0.1,1.8,0.7,1.9,1.7c0,0.1,0,0.1,0,0.2c0,0.9,0,1.8,0,2.6
			c0,1-0.7,1.8-1.7,1.8c0,0-0.1,0-0.1,0c-0.9,0-1.8,0-2.8,0c-1,0-1.8-0.7-1.8-1.7c0-0.1,0-0.1,0-0.2c0-0.9,0-1.8,0-2.6
			c0-1,0.7-1.8,1.7-1.8c0,0,0.1,0,0.1,0C34.5,25.4,35,25.4,35.4,25.4L35.4,25.4z M34,29.9h2.8v-2.8H34L34,29.9z"/>
		<path id="Path_918" class="st0" d="M46.5,28.6c0,0.4,0,0.8,0,1.3c0.1,0.9-0.6,1.7-1.6,1.8c0,0,0,0-0.1,0c-1,0.1-2,0.1-3,0
			c-0.9,0-1.7-0.8-1.6-1.7c0,0,0,0,0,0c0-0.9,0-1.8,0-2.8c0-1,0.8-1.8,1.7-1.8c0,0,0.1,0,0.1,0c0.9,0,1.8,0,2.7,0
			c1,0,1.8,0.7,1.8,1.7c0,0.1,0,0.1,0,0.2C46.5,27.7,46.5,28.1,46.5,28.6 M44.7,27.1h-2.8v2.8h2.8L44.7,27.1z"/>
		<path id="Path_919" class="st0" d="M27.5,39.7c-0.5,0-0.9,0-1.4,0c-1,0-1.7-0.7-1.7-1.7c0,0,0,0,0,0c0-1,0-1.9,0-2.9
			c0-0.9,0.8-1.7,1.7-1.7c0,0,0,0,0,0c1,0,2,0,2.9,0c0.9,0,1.7,0.7,1.7,1.7c0,0,0,0.1,0,0.1c0,0.9,0,1.8,0,2.8
			c0,0.9-0.7,1.7-1.7,1.7c0,0,0,0-0.1,0C28.4,39.7,28,39.7,27.5,39.7 M28.9,35.2h-2.8v2.7h2.8V35.2z"/>
		<path id="Path_920" class="st0" d="M46.5,52c0,0.4,0,0.9,0,1.3c0,0.9-0.7,1.7-1.6,1.8c0,0-0.1,0-0.1,0c-1,0-2,0-2.9,0
			c-0.9,0-1.7-0.8-1.7-1.7c0,0,0,0,0,0c0-0.9,0-1.8,0-2.8c0-1,0.7-1.7,1.7-1.8c0,0,0,0,0.1,0c0.9,0,1.9,0,2.8,0c1,0,1.7,0.8,1.8,1.7
			c0,0,0,0.1,0,0.1C46.5,51.2,46.5,51.6,46.5,52 M44.7,50.7h-2.8v2.8h2.8L44.7,50.7z"/>
		<path id="Path_921" class="st1" d="M35.4,39.7c-0.5,0-1,0-1.4,0c-0.9,0-1.7-0.7-1.7-1.7c0-1,0-2,0-2.9c0-0.9,0.7-1.6,1.6-1.6
			c0,0,0,0,0,0c1,0,2,0,2.9,0c0.9,0,1.7,0.7,1.7,1.7c0,0,0,0,0,0.1c0,0.9,0,1.9,0,2.8c0,1-0.8,1.7-1.7,1.7c0,0-0.1,0-0.1,0
			C36.3,39.7,35.9,39.7,35.4,39.7L35.4,39.7z M36.8,35.2H34v2.7h2.8V35.2z"/>
		<path id="Path_922" class="st0" d="M43.3,39.7c-0.4,0-0.9,0-1.3,0c-1,0.1-1.8-0.7-1.9-1.6c0,0,0-0.1,0-0.1c0-0.9,0-1.8,0-2.8
			c0-0.9,0.7-1.7,1.7-1.7c0,0,0.1,0,0.1,0c0.9,0,1.9,0,2.8,0c0.9,0,1.7,0.7,1.7,1.6c0,0,0,0.1,0,0.1c0,0.9,0,1.8,0,2.8
			c0,0.9-0.7,1.7-1.7,1.7c0,0-0.1,0-0.1,0C44.3,39.7,43.8,39.7,43.3,39.7 M44.7,35.2h-2.8v2.7h2.8L44.7,35.2z"/>
		<path id="Path_923" class="st1" d="M7.9,13.8c0.7-0.7,1.2-1.2,1.8-1.8c0.1-0.2,0.3-0.3,0.5-0.4c0.3-0.3,0.9-0.3,1.2,0c0,0,0,0,0,0
			c0.3,0.3,0.3,0.9,0,1.2c-0.5,0.5-0.9,1-1.4,1.4c-0.4,0.4-0.9,0.9-1.3,1.3c-0.3,0.4-0.8,0.4-1.2,0.1c0,0-0.1-0.1-0.1-0.1
			c-0.5-0.5-1-1-1.5-1.5c-0.3-0.3-0.3-0.8,0-1.2c0,0,0,0,0,0c0.3-0.3,0.9-0.3,1.2,0c0.2,0.1,0.3,0.3,0.5,0.4
			C7.6,13.4,7.7,13.6,7.9,13.8"/>
	</g>
</g>
</svg>
